<svg width="50" height="50" viewBox="0 0 50 50" fill="none" xmlns="http://www.w3.org/2000/svg">
<g clip-path="url(#clip0)">
<path d="M49.9691 48.7063L48.7191 43.7062C48.126 41.2807 46.328 39.33 43.9586 38.5417L34.7919 35.4875C32.5565 34.5563 31.5336 30.9563 31.3127 29.5896C33.016 28.1731 34.112 26.1579 34.3752 23.9583C34.3376 23.5826 34.4263 23.2051 34.6273 22.8854C34.9521 22.804 35.218 22.5714 35.3418 22.2604C35.9416 20.808 36.3181 19.2732 36.4585 17.7083C36.4588 17.6232 36.4484 17.5386 36.4273 17.4562C36.2781 16.8481 35.9205 16.3115 35.4168 15.9396V10.4166C35.4168 7.06035 34.3918 5.6833 33.3126 4.88535C33.1066 3.26875 31.3753 0 25.0003 0C19.3444 0.227734 14.8114 4.76074 14.5836 10.4167V15.9396C14.0799 16.3116 13.7224 16.8482 13.5732 17.4563C13.5521 17.5387 13.5416 17.6234 13.5419 17.7084C13.6822 19.2741 14.0586 20.8096 14.6586 22.2626C14.7489 22.557 14.9855 22.7835 15.2836 22.8605C15.4003 22.9188 15.6191 23.221 15.6191 23.9585C15.8838 26.1644 16.9862 28.1842 18.6983 29.6002C18.4795 30.9647 17.4628 34.5627 15.29 35.471L6.04202 38.5418C3.67454 39.33 1.87766 41.2787 1.28372 43.7022L0.0337175 48.7022C-0.107786 49.2599 0.229518 49.8267 0.787136 49.9682C0.870436 49.9894 0.956081 50.0001 1.04202 50.0002H48.9587C49.534 50 50.0002 49.5335 50.0001 48.9582C50 48.8731 49.9896 48.7886 49.9691 48.7063Z" fill="#434DA0"/>
</g>
<defs>
<clipPath id="clip0">
<rect width="50" height="50" fill="white"/>
</clipPath>
</defs>
</svg>
