<svg width="128" height="128" viewBox="0 0 128 128" fill="none" xmlns="http://www.w3.org/2000/svg">
<path d="M110.612 110.826C107.399 114.141 104.52 116.088 102.322 117.558C80.8448 131.899 56.2983 127.763 48.708 126.354C36.4626 124.073 26.1274 122.468 17.2436 114.442C-2.93987 96.2062 -1.9569 58.1717 13.46 34.6128C15.2869 31.8169 30.6853 8.99521 55.2875 5.77737C55.8902 5.69855 56.34 5.65218 56.7295 5.61045C60.5362 5.20706 84.1183 3.07883 103.351 19.1912C106.105 21.4957 110.533 25.6594 114.642 32.0023C129.669 55.2042 129.715 91.1337 110.612 110.826Z" fill="#EDF0FF"/>
<path d="M122.134 61.0002C122.055 60.5597 121.443 60.518 121.304 60.9399C119.974 65.0434 116.153 75.6938 110.705 81.2114C101.83 90.1927 95.5756 105.104 100.708 113.158C100.708 113.158 130.485 108.888 122.134 61.0002Z" fill="#9FAEFF"/>
<path d="M121.082 66.8931C121.082 66.8931 121.077 66.9395 121.063 67.0229C121.049 67.111 121.026 67.2455 120.994 67.4078C120.929 67.737 120.832 68.2192 120.697 68.8312C120.424 70.0553 120.015 71.7941 119.459 73.8667C119.176 74.9006 118.866 76.0227 118.509 77.2004C118.161 78.3782 117.771 79.6161 117.359 80.8959C116.932 82.1663 116.482 83.4785 115.991 84.8C115.87 85.1292 115.745 85.463 115.625 85.7968C115.499 86.1261 115.37 86.4599 115.244 86.7937C114.994 87.4614 114.72 88.1245 114.456 88.7875C114.192 89.4506 113.909 90.109 113.631 90.7674C113.339 91.4165 113.051 92.0656 112.764 92.7101C112.462 93.3454 112.175 93.9852 111.869 94.6065C111.716 94.9172 111.563 95.2232 111.414 95.5292C111.266 95.8353 111.113 96.1366 110.955 96.4334C110.339 97.6297 109.722 98.7703 109.096 99.8321C108.475 100.899 107.853 101.881 107.269 102.786C106.968 103.231 106.68 103.657 106.407 104.065C106.129 104.469 105.846 104.84 105.591 105.192C105.461 105.368 105.336 105.54 105.215 105.702C105.09 105.864 104.965 106.017 104.849 106.166C104.612 106.463 104.399 106.736 104.204 106.982C103.806 107.469 103.476 107.83 103.259 108.09C103.041 108.345 102.92 108.479 102.92 108.479C102.892 108.512 102.841 108.517 102.813 108.489C102.781 108.461 102.776 108.415 102.804 108.382V108.377C102.804 108.377 102.915 108.238 103.124 107.979C103.333 107.714 103.643 107.339 104.028 106.847C104.214 106.597 104.422 106.319 104.645 106.017C104.756 105.869 104.872 105.711 104.997 105.549C105.113 105.382 105.234 105.211 105.359 105.03C105.605 104.673 105.874 104.293 106.143 103.889C106.407 103.481 106.69 103.05 106.977 102.605C107.543 101.696 108.146 100.708 108.744 99.6373C109.342 98.5709 109.954 97.4303 110.561 96.2387C110.714 95.9419 110.867 95.6405 111.011 95.3345C111.159 95.0285 111.308 94.7225 111.461 94.4118C111.762 93.7951 112.045 93.1553 112.342 92.52C112.625 91.8755 112.907 91.231 113.195 90.5819C113.469 89.9235 113.756 89.2744 114.025 88.6113C114.294 87.9483 114.567 87.2899 114.818 86.6268C114.948 86.2976 115.077 85.9638 115.203 85.6346C115.328 85.3054 115.448 84.9715 115.574 84.6423C116.065 83.3255 116.519 82.0226 116.951 80.7568C117.377 79.4863 117.785 78.2622 118.147 77.0892C118.518 75.9207 118.842 74.8079 119.139 73.7786C119.431 72.7492 119.7 71.8033 119.923 70.9641C120.15 70.1249 120.335 69.3876 120.484 68.7802C120.632 68.1728 120.748 67.6952 120.818 67.3707C120.855 67.2084 120.878 67.0878 120.896 67.0044C120.91 66.9209 120.92 66.8746 120.92 66.8746V66.8653C120.929 66.8236 120.966 66.7957 121.008 66.805C121.059 66.8143 121.087 66.8514 121.082 66.8931Z" fill="#7784D6"/>
<path d="M101.529 116.895C101.529 116.895 101.631 111.475 107.074 105.971C112.128 100.867 124.55 89.0569 127.402 82.5239C127.527 82.2364 127.958 82.3199 127.963 82.6352C128.004 86.0199 127.448 94.5097 121.615 102.962C114.099 113.863 101.529 116.895 101.529 116.895Z" fill="#D0D7FF"/>
<path d="M125.449 88.5937C125.449 88.5937 125.44 88.7328 125.398 88.9925C125.38 89.1223 125.352 89.2846 125.315 89.4701C125.282 89.6602 125.227 89.8735 125.171 90.1099C125.116 90.351 125.037 90.6107 124.953 90.8982C124.87 91.1856 124.759 91.487 124.652 91.8116C124.531 92.1315 124.402 92.4746 124.258 92.8317C124.1 93.184 123.947 93.5596 123.757 93.9398C123.391 94.7049 122.95 95.5116 122.44 96.337C122.181 96.745 121.926 97.1808 121.624 97.5889C121.327 98.0015 121.04 98.4374 120.706 98.85C120.066 99.6985 119.348 100.524 118.592 101.34C118.202 101.739 117.817 102.147 117.423 102.545C117.02 102.935 116.617 103.32 116.213 103.709C115.397 104.484 114.576 105.253 113.756 105.995C112.935 106.737 112.119 107.456 111.326 108.151C110.529 108.837 109.754 109.5 109.026 110.126C108.294 110.752 107.598 111.341 106.972 111.898C106.342 112.449 105.771 112.964 105.28 113.432C105.034 113.669 104.816 113.896 104.608 114.105C104.408 114.318 104.227 114.522 104.061 114.698C103.75 115.074 103.499 115.361 103.356 115.579C103.203 115.792 103.124 115.904 103.124 115.904L103.119 115.908C103.096 115.941 103.045 115.95 103.013 115.927C102.98 115.904 102.971 115.857 102.994 115.825C102.994 115.825 103.068 115.704 103.212 115.482C103.346 115.255 103.578 114.939 103.88 114.545C104.037 114.355 104.214 114.142 104.408 113.919C104.612 113.701 104.821 113.46 105.062 113.21C105.54 112.718 106.087 112.167 106.703 111.596C107.32 111.021 107.997 110.409 108.716 109.765C109.434 109.125 110.19 108.443 110.974 107.743C111.757 107.043 112.56 106.315 113.371 105.569C113.774 105.193 114.182 104.817 114.59 104.437C114.994 104.057 115.402 103.672 115.81 103.287C116.213 102.898 116.617 102.508 117.02 102.119C117.409 101.725 117.799 101.331 118.179 100.941C118.93 100.144 119.644 99.3369 120.293 98.5208C120.632 98.1221 120.924 97.7001 121.225 97.3014C121.531 96.9026 121.791 96.4853 122.065 96.0912C122.598 95.2937 123.048 94.5101 123.446 93.7775C123.646 93.4112 123.817 93.0496 123.989 92.7065C124.147 92.3587 124.295 92.0295 124.434 91.7189C124.694 91.0883 124.902 90.5365 125.051 90.0682C125.125 89.8364 125.19 89.6277 125.241 89.4423C125.296 89.2614 125.334 89.1038 125.366 88.9739C125.426 88.7189 125.449 88.5798 125.449 88.5798C125.449 88.5752 125.454 88.5706 125.459 88.5706C125.445 88.5845 125.449 88.5891 125.449 88.5937Z" fill="#7784D6"/>
<path d="M26.8185 14.8834C24.8572 20.7581 14.828 55.4265 45.6667 70.6811C45.6667 70.6811 58.144 49.5611 27.7134 14.7026C27.4445 14.3966 26.9484 14.4986 26.8185 14.8834Z" fill="#D0D7FF"/>
<path d="M28.9745 20.7814C28.9745 20.7814 29.2157 23.7396 29.7489 28.1537C29.8833 29.2573 30.0363 30.4535 30.2033 31.7147C30.3748 32.9759 30.5603 34.3066 30.7736 35.6837C30.9776 37.0561 31.2094 38.475 31.4552 39.917C31.5804 40.6357 31.7102 41.359 31.8354 42.0869C31.9745 42.8103 32.0997 43.5429 32.2434 44.2708C32.3871 44.9988 32.5262 45.7267 32.6792 46.4501C32.8276 47.1734 32.9806 47.8921 33.1383 48.6061C33.2171 48.9632 33.2959 49.3155 33.3747 49.6679C33.4582 50.0203 33.5417 50.3681 33.6205 50.7158C33.7781 51.4113 33.9543 52.0975 34.1212 52.7699C34.8028 55.4638 35.5308 57.949 36.2448 60.0495C36.4164 60.578 36.6019 61.0742 36.7734 61.5517C36.8615 61.7882 36.945 62.02 37.0238 62.2472C37.1073 62.4698 37.1954 62.6877 37.2788 62.8964C37.4457 63.3137 37.5941 63.7078 37.7471 64.0648C37.9001 64.4218 38.0439 64.751 38.1737 65.0432C38.2386 65.1915 38.2989 65.3306 38.3592 65.4605C38.4194 65.5903 38.4797 65.7108 38.5354 65.8221C38.642 66.0493 38.7347 66.2394 38.8089 66.3971C38.9573 66.7077 39.0361 66.8747 39.0361 66.8747L39.0408 66.8886C39.1149 67.0416 39.05 67.227 38.897 67.3012C38.744 67.3754 38.5585 67.3105 38.4844 67.1575C38.4844 67.1575 38.4055 66.9906 38.2572 66.6706C38.183 66.513 38.0902 66.3182 37.9836 66.0864C37.928 65.9705 37.8723 65.8499 37.8074 65.7155C37.7518 65.581 37.6915 65.4419 37.6266 65.2889C37.4967 64.9875 37.3576 64.6537 37.2046 64.292C37.0516 63.9304 36.9079 63.5316 36.741 63.105C36.6575 62.8917 36.574 62.6738 36.4906 62.4466C36.4118 62.2194 36.3283 61.9876 36.2402 61.7465C36.0686 61.2643 35.8878 60.7635 35.7209 60.2303C35.0161 58.1113 34.3021 55.6029 33.639 52.8951C33.4768 52.2181 33.3052 51.5319 33.1522 50.8317C33.0734 50.484 32.9945 50.1316 32.9111 49.7746C32.8369 49.4222 32.7581 49.0652 32.6839 48.7081C32.5262 47.9941 32.3825 47.2708 32.2388 46.5428C32.0904 45.8195 31.9559 45.0869 31.8168 44.3589C31.6777 43.631 31.5525 42.8984 31.4227 42.1704C31.3022 41.4424 31.177 40.7145 31.0564 39.9912C30.8246 38.5492 30.602 37.1257 30.4073 35.7486C30.2079 34.3715 30.0317 33.0361 29.8694 31.7703C29.7071 30.5045 29.5634 29.3083 29.4382 28.2001C28.9375 23.7721 28.7195 20.8092 28.7195 20.8092C28.7149 20.735 28.7659 20.6748 28.8401 20.6701C28.905 20.6562 28.9699 20.7118 28.9745 20.7814Z" fill="#7784D6"/>
<path d="M10.5853 22.1124C10.5945 21.5003 11.4199 21.3102 11.6981 21.8527C14.3734 27.1339 21.8246 40.7657 30.3932 47.0809C44.3403 57.3696 56.0016 76.2548 50.7528 88.2684C50.7528 88.2731 9.46783 88.8341 10.5853 22.1124Z" fill="#9FAEFF"/>
<path d="M13.4461 29.8371C13.4461 29.8371 13.4647 29.8927 13.5018 30.0086C13.5435 30.1199 13.5991 30.2775 13.6872 30.4908C13.8541 30.9174 14.1092 31.5434 14.4337 32.3362C14.7629 33.1291 15.171 34.0889 15.6532 35.1785C16.1307 36.2728 16.6964 37.4969 17.3038 38.8369C17.9251 40.1676 18.6021 41.6096 19.3486 43.1212C20.0858 44.6374 20.9019 46.2138 21.7458 47.8459C22.6035 49.4734 23.4938 51.1473 24.4443 52.8257C24.6808 53.2477 24.9172 53.6696 25.1583 54.0916C25.4041 54.5135 25.6452 54.9308 25.8909 55.3527C26.3732 56.2012 26.8878 57.0358 27.3886 57.8751C27.8894 58.7143 28.4226 59.5397 28.9326 60.3696C29.4565 61.1903 29.9805 62.011 30.5091 62.8178C31.0469 63.6153 31.5709 64.4174 32.1087 65.1918C32.3777 65.5813 32.6466 65.9661 32.9155 66.3463C33.05 66.5364 33.1798 66.7265 33.3143 66.9166C33.4487 67.1021 33.5878 67.2876 33.7223 67.473C33.9912 67.844 34.2601 68.2103 34.5291 68.5766C34.6635 68.7574 34.7934 68.9382 34.9278 69.119C35.0623 69.2952 35.2014 69.4714 35.3358 69.6476C35.8783 70.3431 36.3837 71.0433 36.9216 71.6924C37.1859 72.0216 37.4455 72.3415 37.7006 72.6615C37.8304 72.8191 37.9556 72.9768 38.0808 73.1344C38.2106 73.2874 38.3404 73.4404 38.4656 73.5934C38.9803 74.1962 39.4671 74.7851 39.954 75.3322C40.4455 75.8747 40.9184 76.3986 41.3682 76.8948C41.8226 77.3863 42.2677 77.836 42.6803 78.2719C42.889 78.4851 43.0884 78.6938 43.2831 78.8978C43.4825 79.0925 43.6772 79.278 43.8627 79.4588C44.2336 79.8205 44.5721 80.1497 44.8828 80.4465C45.5087 81.0307 46.0187 81.4712 46.3572 81.7818C46.7003 82.0878 46.8812 82.2548 46.8812 82.2548H46.8858C46.9183 82.2826 46.9183 82.3336 46.8904 82.3614C46.8626 82.3939 46.8162 82.3939 46.7838 82.3707C46.7838 82.3707 46.5983 82.213 46.2459 81.9117C45.8982 81.6103 45.3742 81.1837 44.7344 80.6087C44.4191 80.3166 44.0713 79.9921 43.6911 79.6397C43.501 79.4635 43.3063 79.278 43.0976 79.0879C42.8983 78.8885 42.6942 78.6845 42.481 78.4759C42.059 78.0493 41.6046 77.6042 41.1363 77.122C40.6773 76.6305 40.1997 76.1112 39.699 75.5687C39.2028 75.0215 38.7067 74.4373 38.1828 73.8392C38.0529 73.6908 37.9231 73.5378 37.7886 73.3848C37.6588 73.2271 37.529 73.0695 37.3992 72.9119C37.1395 72.5966 36.8752 72.272 36.6063 71.9474C35.5352 70.6399 34.4549 69.2257 33.3699 67.7373C33.2354 67.5518 33.0963 67.3664 32.9572 67.1763C32.8228 66.9862 32.6883 66.7961 32.5538 66.606C32.2849 66.2258 32.0114 65.8363 31.7378 65.4514C31.1907 64.6771 30.6667 63.875 30.1196 63.0728C29.591 62.266 29.0578 61.4453 28.5292 60.62C28.2696 60.2027 28.0145 59.79 27.7549 59.3727C27.4952 58.9554 27.2356 58.5381 26.9852 58.1162C26.4844 57.2723 25.9744 56.4331 25.4876 55.5799C25.2418 55.158 25.0007 54.7314 24.755 54.3095C24.5185 53.8829 24.282 53.461 24.0455 53.039C23.0997 51.3513 22.2094 49.6682 21.3609 48.036C20.5217 46.3947 19.7288 44.8043 19.0055 43.2788C18.2729 41.758 17.6098 40.3067 17.0024 38.9667C15.7969 36.2774 14.8649 34.0101 14.2297 32.4104C13.9144 31.6129 13.6779 30.9777 13.5203 30.5465C13.4415 30.3332 13.3812 30.157 13.3441 30.0457C13.307 29.9344 13.2885 29.8742 13.2885 29.8742C13.2746 29.8324 13.2977 29.7907 13.3395 29.7768C13.3812 29.7629 13.4229 29.7861 13.4368 29.8232L13.4461 29.8371Z" fill="#7784D6"/>
<path d="M51.4113 89.2097C51.4113 89.2097 49.5334 80.9332 39.4394 74.2332C30.0733 68.0155 7.28408 53.8644 0.834468 44.7626C0.546994 44.3592 -0.0835933 44.6235 0.0137768 45.1103C1.02457 50.3127 4.5809 63.1423 16.2004 74.2425C31.1815 88.5559 51.4113 89.2097 51.4113 89.2097Z" fill="#D0D7FF"/>
<path d="M5.78172 53.4285C5.78172 53.4285 5.85591 53.6372 6.02747 54.0081C6.11093 54.1936 6.21757 54.4254 6.35667 54.6897C6.42622 54.8242 6.49113 54.9679 6.57459 55.1163C6.65805 55.2646 6.74151 55.4269 6.83425 55.5939C7.01044 55.9323 7.23764 56.294 7.46947 56.6927C7.70594 57.0869 7.98878 57.4995 8.27625 57.9493C8.58227 58.3851 8.91147 58.8488 9.25922 59.331C9.44005 59.5675 9.63016 59.8086 9.82026 60.059C10.015 60.3047 10.2005 60.5644 10.4184 60.8147C11.253 61.8255 12.1989 62.8873 13.2607 63.9445C13.5296 64.2088 13.7985 64.4731 14.0767 64.742C14.2158 64.8765 14.3456 65.0156 14.494 65.1454C14.6378 65.2752 14.7861 65.4051 14.9299 65.5395C15.222 65.8038 15.5187 66.0681 15.8155 66.337C15.9685 66.4715 16.1122 66.6106 16.2699 66.7358C16.4275 66.8656 16.5852 66.9908 16.7428 67.1206C17.9993 68.1731 19.3486 69.1886 20.7582 70.1808C21.4722 70.6584 22.1909 71.1453 22.9142 71.6228C23.6514 72.0911 24.3979 72.5594 25.1398 73.0277C25.8863 73.4868 26.6328 73.9458 27.3747 74.4002C28.1212 74.85 28.8677 75.2997 29.6049 75.7448C30.3468 76.1853 31.084 76.6212 31.812 77.0524C32.5446 77.4789 33.2679 77.8962 33.9773 78.3089C35.4007 79.1296 36.7825 79.9225 38.0854 80.6783C39.3929 81.434 40.6309 82.1434 41.7623 82.825C42.8982 83.4974 43.9137 84.1558 44.8039 84.7539C45.249 85.0553 45.6524 85.352 46.0326 85.6209C46.4036 85.8991 46.7374 86.1681 47.0434 86.4045C47.6323 86.9053 48.0867 87.3041 48.3695 87.6101C48.6616 87.9022 48.8146 88.0598 48.8146 88.0598C48.8424 88.0923 48.8424 88.1387 48.8146 88.1711C48.7868 88.1989 48.7358 88.1989 48.708 88.1711L48.7033 88.1665C48.7033 88.1665 48.5457 88.0181 48.2443 87.7353C47.9568 87.4432 47.4839 87.0722 46.8904 86.59C46.5798 86.3628 46.2459 86.1078 45.8703 85.8435C45.4855 85.5885 45.0775 85.301 44.6277 85.0182C43.7282 84.4479 42.6942 83.8312 41.5536 83.1774C40.4176 82.519 39.1704 81.8281 37.8535 81.0956C36.5367 80.363 35.1457 79.5886 33.7037 78.7911C32.9897 78.3831 32.2617 77.9658 31.5245 77.5485C30.7919 77.1219 30.05 76.6907 29.3035 76.2549C28.5617 75.8144 27.8105 75.3693 27.0594 74.9149C26.3129 74.4558 25.5617 73.9968 24.8152 73.5378C24.0734 73.0695 23.3315 72.6012 22.5896 72.1375C21.857 71.6507 21.1384 71.1545 20.415 70.6677C19.0009 69.6615 17.6377 68.6275 16.3904 67.5426C16.2328 67.4081 16.0751 67.2783 15.9175 67.1438C15.7598 67.014 15.6161 66.8702 15.4631 66.7311C15.1663 66.4529 14.8696 66.1794 14.5775 65.9104C13.9793 65.3819 13.46 64.8023 12.9268 64.2644C11.8789 63.1702 10.9516 62.0713 10.1356 61.0327C9.92227 60.7777 9.74144 60.5087 9.55133 60.2583C9.36587 60.0033 9.1804 59.7529 9.00421 59.5118C8.82801 59.2661 8.675 59.0157 8.51272 58.7792C8.35507 58.5381 8.20206 58.3109 8.05833 58.0837C7.78476 57.6201 7.51584 57.1981 7.29328 56.7901C7.07535 56.3821 6.86207 56.0112 6.69515 55.6634C6.52359 55.3203 6.37058 55.0096 6.25466 54.7361C6.12947 54.4625 6.03674 54.226 5.96255 54.0359C5.80954 53.6511 5.74463 53.4424 5.74463 53.4424C5.74463 53.4378 5.74463 53.4332 5.74927 53.4285C5.77245 53.4239 5.77709 53.4239 5.78172 53.4285Z" fill="#7784D6"/>
<path d="M102.229 118.783H21.5929C18.338 118.783 15.6997 116.144 15.6997 112.889V60.379C15.6997 57.2493 18.1432 54.6666 21.2684 54.4951L105.016 49.8259C108.521 49.6312 111.419 52.5245 111.229 56.0298L108.118 113.205C107.942 116.334 105.359 118.783 102.229 118.783Z" fill="url(#paint0_linear)"/>
<path d="M63.7914 87.1002L107.868 50.3917C107.01 49.9836 106.036 49.7703 105.007 49.8306L21.2638 54.4951C19.8218 54.5739 18.5281 55.1674 17.5498 56.0901L50.5398 86.771C54.1193 90.1001 60.0125 90.2485 63.7914 87.1002Z" fill="#6170E7"/>
<path opacity="0.65" d="M57.6661 85.2778C55.473 85.2778 53.2938 84.4942 51.5411 82.9456L39.1102 71.9705C38.7439 71.6506 38.7115 71.0942 39.0314 70.7279C39.3513 70.3616 39.9123 70.3291 40.274 70.6491L52.7049 81.6241C55.3432 83.9564 59.187 84.1465 62.0478 82.0924L68.4881 77.465C68.8822 77.1822 69.434 77.2703 69.7168 77.6644C69.9997 78.0585 69.9116 78.6103 69.5174 78.8931L63.0771 83.5205C61.4404 84.6983 59.5486 85.2778 57.6661 85.2778Z" fill="white"/>
<path opacity="0.65" d="M35.0673 68.1129C34.8586 68.1129 34.65 68.0387 34.483 67.8903L32.8092 66.4113C32.4429 66.0914 32.4104 65.5351 32.7304 65.1688C33.0503 64.8025 33.6067 64.7701 33.973 65.09L35.6469 66.569C36.0132 66.8889 36.0456 67.4452 35.7257 67.8115C35.5541 68.0109 35.313 68.1129 35.0673 68.1129Z" fill="white"/>
<path d="M47.2244 32.3594L43.8582 50.3728L54.3463 41.1505L47.2244 32.3594Z" fill="#9FAEFF"/>
<path d="M123.558 37.7935L50.6601 41.3313C48.7869 41.424 47.2197 39.931 47.2197 38.0532V8.06317C47.2197 4.80359 49.807 2.13287 53.0666 2.03086L118.768 0C123.66 0 127.629 3.96436 127.629 8.86068V33.5231C127.629 35.8044 125.839 37.6822 123.558 37.7935Z" fill="#9FAEFF"/>
<path opacity="0.85" d="M52.844 40.0424C51.7034 40.0424 50.6277 39.6112 49.7977 38.8184C48.9121 37.9745 48.4253 36.8385 48.4253 35.6144V8.58726C48.4253 5.4436 50.943 2.90734 54.1608 2.80997L117.771 0.89502C122.547 0.89502 126.428 4.68318 126.428 9.34304V32.6423C126.428 34.8401 124.666 36.6484 122.417 36.7551L122.413 36.6762L122.417 36.7551L53.062 40.0378C52.9878 40.0425 52.9136 40.0424 52.844 40.0424ZM117.771 1.04803L54.1655 2.96761C51.0311 3.06035 48.5783 5.53169 48.5783 8.58726V35.6144C48.5783 36.7921 49.0466 37.891 49.8997 38.7071C50.7529 39.5231 51.8703 39.9404 53.048 39.8848L122.408 36.602C124.573 36.5 126.275 34.7613 126.275 32.6423V9.3384C126.27 4.76664 122.459 1.04803 117.771 1.04803Z" fill="white"/>
<path d="M58.779 14.5452C58.8625 14.5545 58.9367 14.5684 59.0016 14.6009C59.0665 14.6287 59.1314 14.6704 59.1963 14.7261C59.2612 14.7817 59.3308 14.8559 59.4096 14.9486L67.5331 24.5651C67.496 24.3286 67.4682 24.0921 67.4496 23.865C67.4311 23.6378 67.4172 23.4245 67.4125 23.2251L67.088 14.2299L69.5129 14.1418L70.0461 28.9421L68.6227 28.9931C68.4048 29.0024 68.2239 28.9746 68.0756 28.9096C67.9318 28.8447 67.7835 28.7288 67.6444 28.5573L59.5534 18.9825C59.5812 19.2005 59.6044 19.4184 59.6229 19.6317C59.6415 19.845 59.6554 20.0443 59.66 20.2205L59.9892 29.3084L57.5642 29.3965L57.031 14.5962L58.473 14.5452C58.5936 14.536 58.6956 14.536 58.779 14.5452Z" fill="white"/>
<path d="M81.8324 13.6968L81.9112 15.8853L75.3503 16.1218L75.4987 20.2252L80.6686 20.0398L80.7428 22.1587L75.5729 22.3442L75.7259 26.5311L82.2868 26.2946L82.3656 28.4971L73.032 28.8309L72.4988 14.0306L81.8324 13.6968Z" fill="white"/>
<path d="M82.848 13.6642L85.1617 13.5808C85.3982 13.5715 85.6022 13.6225 85.7645 13.7291C85.9268 13.8358 86.0427 13.9842 86.103 14.1743L88.9406 22.9376C89.0102 23.1555 89.0751 23.3873 89.1353 23.6423C89.1956 23.8974 89.2559 24.1663 89.3115 24.4491C89.3579 24.1617 89.4043 23.8881 89.4599 23.6284C89.5156 23.3688 89.5758 23.1323 89.6454 22.9097L92.2326 13.9517C92.2836 13.7941 92.3857 13.6457 92.5387 13.5112C92.6963 13.3767 92.8864 13.3026 93.1183 13.2933L93.925 13.2655C94.1615 13.2562 94.3655 13.3072 94.5232 13.4138C94.6854 13.5205 94.7967 13.6689 94.8663 13.859L98.0702 22.6084C98.2371 23.0396 98.3809 23.5172 98.5107 24.0457C98.5478 23.7768 98.5895 23.5218 98.6313 23.2714C98.673 23.0257 98.7194 22.7938 98.7657 22.5805L100.964 13.6364C101.005 13.4648 101.107 13.3118 101.265 13.1866C101.423 13.0568 101.622 12.9873 101.854 12.9826L104.014 12.9038L99.9527 27.8664L97.4675 27.9545L93.8694 17.9578C93.823 17.828 93.7767 17.6935 93.7257 17.5405C93.6747 17.3921 93.6283 17.2345 93.5819 17.0629C93.5448 17.2345 93.5124 17.3967 93.4706 17.5498C93.4335 17.7028 93.3918 17.8419 93.3594 17.9717L90.4614 28.2048L87.9762 28.2929L82.848 13.6642Z" fill="white"/>
<path d="M113.668 15.2501C113.598 15.4031 113.515 15.5098 113.418 15.5747C113.32 15.6396 113.204 15.6767 113.07 15.6813C112.935 15.6859 112.778 15.6396 112.602 15.5376C112.425 15.4402 112.221 15.3289 111.985 15.2084C111.748 15.0878 111.475 14.9812 111.16 14.8838C110.844 14.7911 110.478 14.7493 110.056 14.7632C109.676 14.7772 109.342 14.8374 109.064 14.9394C108.786 15.0415 108.549 15.1806 108.364 15.3475C108.174 15.519 108.039 15.7184 107.951 15.9502C107.863 16.1821 107.826 16.4371 107.835 16.706C107.849 17.0538 107.956 17.3412 108.16 17.5638C108.364 17.791 108.628 17.9765 108.952 18.1295C109.277 18.2825 109.648 18.4169 110.065 18.5282C110.478 18.6441 110.9 18.7647 111.336 18.8992C111.767 19.029 112.193 19.1866 112.606 19.3675C113.023 19.5483 113.394 19.7801 113.728 20.063C114.057 20.3504 114.331 20.7028 114.54 21.1248C114.748 21.5467 114.864 22.066 114.887 22.6781C114.911 23.3457 114.818 23.9763 114.614 24.5698C114.405 25.1633 114.09 25.6826 113.668 26.1324C113.241 26.5821 112.717 26.9438 112.091 27.2127C111.466 27.4863 110.742 27.6347 109.926 27.6625C109.453 27.681 108.99 27.6486 108.531 27.5744C108.072 27.5002 107.626 27.3843 107.2 27.2266C106.773 27.0736 106.375 26.8789 105.999 26.6563C105.623 26.4291 105.29 26.1741 104.993 25.8913L105.744 24.542C105.813 24.4446 105.902 24.3612 106.008 24.2916C106.11 24.2221 106.226 24.185 106.356 24.1803C106.528 24.1757 106.713 24.236 106.917 24.3704C107.121 24.5049 107.357 24.6486 107.636 24.8109C107.909 24.9732 108.234 25.1169 108.605 25.2421C108.976 25.3673 109.416 25.423 109.926 25.4044C110.71 25.3766 111.313 25.1679 111.73 24.7831C112.147 24.3983 112.342 23.8558 112.319 23.1603C112.305 22.7708 112.198 22.4555 111.994 22.219C111.79 21.9826 111.526 21.7832 111.201 21.6255C110.877 21.4679 110.506 21.3427 110.093 21.2407C109.68 21.1387 109.259 21.0274 108.832 20.9068C108.405 20.7863 107.983 20.6379 107.566 20.4617C107.149 20.2855 106.778 20.0491 106.444 19.7523C106.11 19.4556 105.841 19.0846 105.628 18.6302C105.415 18.1758 105.299 17.6102 105.276 16.9378C105.257 16.4 105.345 15.8714 105.54 15.3521C105.735 14.8328 106.036 14.3691 106.43 13.9565C106.829 13.5438 107.325 13.21 107.914 12.9503C108.507 12.6907 109.189 12.5469 109.959 12.5191C110.83 12.4866 111.642 12.5933 112.388 12.8437C113.135 13.0894 113.775 13.4511 114.312 13.924L113.668 15.2501Z" fill="white"/>
<path d="M23.596 72.3781C23.5543 72.4569 21.0088 74.3301 21.0088 74.3301C21.0088 74.3301 21.5698 78.3548 23.8557 79.9452C26.3688 81.6932 29.9158 78.5078 29.9158 78.5078C29.9158 78.5078 32.7395 79.1801 34.2418 73.3008C34.5849 71.9515 32.5958 71.8402 30.1987 72.086C27.1014 72.4059 23.596 72.3781 23.596 72.3781Z" fill="url(#paint1_linear)"/>
<path d="M17.151 88.0693C18.338 87.2533 19.6502 86.6412 21.0366 86.261C21.5605 86.1173 24.3796 86.938 26.123 86.8962C28.5155 86.8406 30.9498 85.751 32.925 86.2425C34.8817 86.7293 36.486 87.3692 37.4133 88.0276C40.186 89.9982 41.8135 93.675 42.8011 97.3148C40.9233 99.2436 38.5632 100.097 38.5632 100.097L38.1274 117.79L27.6624 123.15L15.7183 117.155L16.1449 99.8649C16.1449 99.8649 12.3521 98.0984 12.0739 97.4585C11.8003 96.8094 13.808 90.3737 17.151 88.0693Z" fill="#FE7062"/>
<path d="M12.2546 97.3745C12.2546 97.3745 7.17283 111.465 18.7599 117.252C21.1663 116.932 20.239 112.935 20.239 112.935C20.239 112.935 15.2035 111.822 16.7151 100.068C15.3241 98.9278 12.2546 97.3745 12.2546 97.3745Z" fill="url(#paint2_linear)"/>
<path d="M42.5553 97.3745C42.5553 97.3745 46.0513 112.082 36.05 117.252C33.6436 116.932 34.5709 112.935 34.5709 112.935C34.5709 112.935 38.628 110.937 38.0948 100.068C39.4858 98.9278 42.5553 97.3745 42.5553 97.3745Z" fill="url(#paint3_linear)"/>
<path d="M37.5152 118.245H16.5945C16.0381 118.245 15.5837 117.79 15.5837 117.234V103.76C15.5837 103.203 16.0381 102.749 16.5945 102.749H37.5198C38.0762 102.749 38.5306 103.203 38.5306 103.76V117.234C38.526 117.79 38.0716 118.245 37.5152 118.245Z" fill="url(#paint4_linear)"/>
<path d="M48.8521 122.904C48.7686 122.881 48.6805 122.858 48.5924 122.839C45.9681 122.237 39.8986 122.561 39.8986 122.561L39.6529 123.229L39.2449 126.553C39.2449 126.553 45.0222 127.597 47.8737 127.592C48.1658 127.592 48.4301 127.55 48.6712 127.471C50.8041 126.804 51.0591 123.526 48.8521 122.904Z" fill="url(#paint5_linear)"/>
<path d="M38.1505 122.371L39.1799 122.413C39.7316 122.436 40.251 122.705 40.6219 123.159C40.9928 123.613 41.1829 124.212 41.1505 124.824C41.1227 125.311 40.9233 125.77 40.5941 126.089C40.2649 126.414 39.829 126.576 39.3932 126.544L37.8213 126.433L38.1505 122.371Z" fill="url(#paint6_linear)"/>
<path d="M12.5236 123.183L12.2918 122.506C12.2918 122.506 6.23162 121.996 3.59335 122.519C3.50062 122.538 3.41252 122.557 3.3337 122.575C1.11273 123.127 1.28429 126.414 3.40325 127.147C3.64436 127.23 3.90865 127.281 4.20076 127.291C7.04767 127.379 12.8528 126.516 12.8528 126.516L12.5236 123.183Z" fill="url(#paint7_linear)"/>
<path d="M14.0442 122.371L13.0149 122.385C12.4631 122.389 11.9346 122.644 11.5544 123.085C11.1742 123.525 10.9655 124.124 10.984 124.736C10.998 125.222 11.1881 125.686 11.508 126.02C11.8279 126.354 12.2591 126.53 12.6996 126.511L14.2761 126.447L14.0442 122.371Z" fill="url(#paint8_linear)"/>
<path d="M49.325 112.42C48.1334 109.68 45.2215 109.235 42.7409 110.515C42.6992 110.57 26.9994 118.615 13.1543 122.144C13.5484 123.414 13.7524 124.768 13.7988 126.094C13.8081 126.391 13.8034 126.683 13.7849 126.97C24.4029 126.423 35.925 122.885 45.8243 119.774C48.8984 118.787 50.6418 115.457 49.325 112.42Z" fill="url(#paint9_linear)"/>
<path d="M38.2246 126.307C38.1829 124.777 38.4796 123.349 39.1195 122.028C39.138 121.967 39.1612 121.907 39.1798 121.851C38.3869 121.606 37.3668 121.276 36.0268 120.817C26.1971 117.451 18.6949 114.057 11.5405 110.144C8.75853 108.623 5.59632 109.643 4.70608 112.935C3.91321 115.87 5.6566 118.378 8.30414 119.259C16.2282 121.898 12.1016 121.165 14.6888 121.995C21.6392 124.142 30.2866 126.103 38.2431 126.636C38.2385 126.53 38.2292 126.418 38.2246 126.307Z" fill="url(#paint10_linear)"/>
<path d="M21.041 86.2605C21.041 86.2605 22.0982 90.8416 27.231 90.7488C32.4611 90.6515 32.9248 86.2466 32.9248 86.2466L29.5076 85.514L29.2201 81.7073L24.0827 82.0875L23.9853 85.7041L21.041 86.2605Z" fill="url(#paint11_linear)"/>
<path d="M25.2651 71.7063C25.2651 71.7063 20.3178 81.2902 26.1878 83.6178C30.3284 85.2592 32.9249 77.2517 32.1506 75.0864C30.9543 71.7341 30.1661 72.1329 30.1661 72.1329L25.2651 71.7063Z" fill="url(#paint12_linear)"/>
<path d="M33.3376 70.8345C35.7812 71.5068 33.6947 76.8064 30.0131 75.5546C26.3316 74.3027 24.885 74.3212 24.3147 75.332C23.7397 76.3428 23.6192 79.9315 22.3719 78.1557C21.0087 76.213 20.2483 72.3089 21.9175 71.0478C23.4105 69.9211 23.7629 68.1777 25.5527 68.238C27.9313 68.3168 29.772 67.2643 30.8477 68.0247C32.0857 68.8964 31.5432 70.3384 33.3376 70.8345Z" fill="url(#paint13_linear)"/>
<path d="M24.0874 76.1526C24.0874 76.1526 23.0302 75.0166 22.8633 76.3844C22.6964 77.7522 23.2389 79.5141 23.8741 78.5497C24.5093 77.5853 24.0874 76.1526 24.0874 76.1526Z" fill="url(#paint14_linear)"/>
<defs>
<linearGradient id="paint0_linear" x1="15.3886" y1="84.6717" x2="110.394" y2="80.4021" gradientUnits="userSpaceOnUse">
<stop stop-color="#434DA0"/>
<stop offset="1" stop-color="#5763C1"/>
</linearGradient>
<linearGradient id="paint1_linear" x1="38.8153" y1="58.6322" x2="28.3679" y2="73.4788" gradientUnits="userSpaceOnUse">
<stop stop-color="#09005D"/>
<stop offset="1" stop-color="#1A0F91"/>
</linearGradient>
<linearGradient id="paint2_linear" x1="9.65769" y1="93.5875" x2="29.54" y2="141.615" gradientUnits="userSpaceOnUse">
<stop stop-color="#FEBBBA"/>
<stop offset="1" stop-color="#FF928E"/>
</linearGradient>
<linearGradient id="paint3_linear" x1="44.9043" y1="93.4843" x2="25.0219" y2="141.512" gradientUnits="userSpaceOnUse">
<stop stop-color="#FEBBBA"/>
<stop offset="1" stop-color="#FF928E"/>
</linearGradient>
<linearGradient id="paint4_linear" x1="11.2711" y1="130.149" x2="36.7869" y2="98.379" gradientUnits="userSpaceOnUse">
<stop stop-color="#09005D"/>
<stop offset="1" stop-color="#1A0F91"/>
</linearGradient>
<linearGradient id="paint5_linear" x1="56.7932" y1="125.163" x2="-0.764568" y2="124.472" gradientUnits="userSpaceOnUse">
<stop stop-color="#09005D"/>
<stop offset="1" stop-color="#1A0F91"/>
</linearGradient>
<linearGradient id="paint6_linear" x1="46.4232" y1="105.391" x2="34.9545" y2="136.455" gradientUnits="userSpaceOnUse">
<stop stop-color="#FEBBBA"/>
<stop offset="1" stop-color="#FF928E"/>
</linearGradient>
<linearGradient id="paint7_linear" x1="19.272" y1="124.95" x2="-38.2772" y2="124.259" gradientUnits="userSpaceOnUse">
<stop stop-color="#09005D"/>
<stop offset="1" stop-color="#1A0F91"/>
</linearGradient>
<linearGradient id="paint8_linear" x1="23.4449" y1="96.0288" x2="11.9696" y2="127.11" gradientUnits="userSpaceOnUse">
<stop stop-color="#FEBBBA"/>
<stop offset="1" stop-color="#FF928E"/>
</linearGradient>
<linearGradient id="paint9_linear" x1="36.2216" y1="106.496" x2="15.849" y2="159.279" gradientUnits="userSpaceOnUse">
<stop stop-color="#4F52FF"/>
<stop offset="1" stop-color="#4042E2"/>
</linearGradient>
<linearGradient id="paint10_linear" x1="31.2612" y1="131.94" x2="4.10065" y2="94.2861" gradientUnits="userSpaceOnUse">
<stop stop-color="#4F52FF"/>
<stop offset="1" stop-color="#4042E2"/>
</linearGradient>
<linearGradient id="paint11_linear" x1="27.1114" y1="97.5532" x2="26.8469" y2="74.536" gradientUnits="userSpaceOnUse">
<stop stop-color="#FEBBBA"/>
<stop offset="1" stop-color="#FF928E"/>
</linearGradient>
<linearGradient id="paint12_linear" x1="26.5574" y1="83.3434" x2="29.948" y2="66.8395" gradientUnits="userSpaceOnUse">
<stop stop-color="#FEBBBA"/>
<stop offset="1" stop-color="#FF928E"/>
</linearGradient>
<linearGradient id="paint13_linear" x1="39.2422" y1="56.3734" x2="27.487" y2="73.0789" gradientUnits="userSpaceOnUse">
<stop stop-color="#09005D"/>
<stop offset="1" stop-color="#1A0F91"/>
</linearGradient>
<linearGradient id="paint14_linear" x1="24.3104" y1="85.5351" x2="21.8801" y2="59.2451" gradientUnits="userSpaceOnUse">
<stop stop-color="#FEBBBA"/>
<stop offset="1" stop-color="#FF928E"/>
</linearGradient>
</defs>
</svg>
