<svg width="131" height="128" viewBox="0 0 131 128" fill="none" xmlns="http://www.w3.org/2000/svg">
<path d="M112.609 109.993C109.994 112.745 107.517 114.523 105.561 115.927C82.5768 132.42 55.3832 127.616 49.6017 126.441C41.0643 124.708 24.5699 121.358 12.6413 107.323C-5.40245 86.0981 -2.59169 52.6581 11.4027 30.5827C13.9621 26.5461 27.4858 4.13242 54.9765 0.539274C71.6126 -1.63673 91.0046 2.75185 105.049 14.5187C134.528 39.2181 132.43 89.1244 112.609 109.993Z" fill="#EDF0FF"/>
<path d="M121.466 13.9428C121.215 13.2571 120.214 13.3668 120.113 14.0891C119.172 21.0743 116.123 39.3051 108.971 49.76C97.3209 66.7794 91.5943 92.5668 102.188 104.018C102.188 104.018 148.806 88.5028 121.466 13.9428Z" fill="#D0D7FF"/>
<path opacity="0.43" d="M121.485 23.7166C121.498 23.9406 121.494 24.1234 121.494 24.32L121.485 24.9052L121.457 26.0754C121.434 26.8526 121.398 27.6343 121.361 28.4114C121.284 29.9657 121.188 31.5246 121.078 33.0789C120.854 36.1874 120.543 39.2914 120.187 42.3863C119.835 45.4857 119.396 48.5714 118.893 51.648C118.386 54.7245 117.837 57.7965 117.188 60.8457C115.9 66.9485 114.277 72.9874 112.234 78.8891C111.183 81.8285 110.054 84.7405 108.756 87.5794C107.44 90.4091 106.005 93.1839 104.369 95.8445C104.332 95.9039 104.259 95.9222 104.199 95.8856C104.145 95.8491 104.126 95.7759 104.158 95.7211C105.68 93.0102 107.056 90.2216 108.29 87.3736C109.533 84.5302 110.607 81.6137 111.608 78.6742C112.604 75.7348 113.486 72.7542 114.295 69.7554C115.104 66.7565 115.79 63.7257 116.457 60.6903C117.769 54.6148 118.756 48.4708 119.57 42.3086C119.972 39.2274 120.31 36.1326 120.598 33.0377C120.744 31.488 120.872 29.9383 120.986 28.3886L121.137 26.0617L121.201 24.896L121.224 24.3154C121.229 24.1234 121.238 23.9177 121.233 23.7532V23.7257C121.233 23.6572 121.288 23.6023 121.352 23.6023C121.425 23.6023 121.48 23.6526 121.485 23.7166Z" fill="#434DA0"/>
<path d="M91.0323 0.964548C90.6164 0.406834 89.7252 0.77712 89.8303 1.46741C90.8723 8.12798 93.0478 25.6823 89.3413 37.2206C83.2993 56.0046 85.0817 81.216 97.9198 88.8275C97.9244 88.8275 136.443 61.8789 91.0323 0.964548Z" fill="#9FAEFF"/>
<path opacity="0.43" d="M93.7195 9.91998C93.7926 10.1211 93.8383 10.2903 93.8931 10.4731L94.0485 11.0125L94.341 12.0914C94.533 12.8137 94.7112 13.536 94.8941 14.2583C95.2506 15.7074 95.5842 17.1566 95.9087 18.6148C96.5486 21.5268 97.1107 24.4571 97.6317 27.392C98.1528 30.3268 98.5961 33.28 98.9709 36.2377C99.3457 39.1954 99.6793 42.1623 99.917 45.1383C100.401 51.0857 100.557 57.0697 100.296 63.0354C100.132 66.016 99.8895 68.9966 99.4782 71.9543C99.044 74.9074 98.4818 77.8469 97.7094 80.7314C97.6912 80.7954 97.6272 80.832 97.5632 80.8183C97.4992 80.8 97.4626 80.7406 97.4764 80.6766C98.1345 77.7737 98.6327 74.8434 98.9846 71.8949C99.3457 68.9463 99.5376 65.9794 99.6519 63.0126C99.7661 60.0457 99.757 57.0697 99.6839 54.1029C99.6107 51.1314 99.4096 48.1646 99.1948 45.2023C98.7424 39.2731 97.97 33.3714 97.0376 27.4971C96.5668 24.5623 96.0321 21.632 95.4517 18.7154C95.1637 17.2571 94.8621 15.7988 94.5376 14.3451L94.0394 12.1691L93.7789 11.0857L93.6418 10.5463C93.5961 10.368 93.5458 10.1805 93.5001 10.0297L93.4909 10.0023C93.4727 9.93826 93.5047 9.87426 93.5686 9.85141C93.6326 9.82855 93.6966 9.86055 93.7195 9.91998Z" fill="#434DA0"/>
<path d="M52.4402 114.094C80.5818 114.094 103.395 91.275 103.395 63.1268C103.395 34.9786 80.5818 12.1599 52.4402 12.1599C24.2986 12.1599 1.48535 34.9786 1.48535 63.1268C1.48535 91.275 24.2986 114.094 52.4402 114.094Z" fill="#434DA0"/>
<path d="M91.8825 99.1647C111.781 79.261 111.781 46.9909 91.8825 27.0873C71.9836 7.18368 39.7211 7.18368 19.8222 27.0873C-0.0767484 46.9909 -0.0767484 79.261 19.8222 99.1647C39.7211 119.068 71.9836 119.068 91.8825 99.1647Z" fill="white"/>
<path d="M55.8541 106.624C79.8712 106.624 99.341 87.1496 99.341 63.1268C99.341 39.104 79.8712 19.6296 55.8541 19.6296C31.8369 19.6296 12.3672 39.104 12.3672 63.1268C12.3672 87.1496 31.8369 106.624 55.8541 106.624Z" fill="#434DA0"/>
<path d="M55.854 108.804C30.6759 108.804 10.187 88.3153 10.187 63.1267C10.187 37.9381 30.6713 17.449 55.854 17.449C81.0366 17.449 101.521 37.9381 101.521 63.1267C101.521 88.3153 81.032 108.804 55.854 108.804ZM55.854 19.6295C31.8733 19.6295 12.3671 39.1404 12.3671 63.1267C12.3671 87.113 31.8733 106.624 55.854 106.624C79.8346 106.624 99.3408 87.113 99.3408 63.1267C99.3408 39.1404 79.83 19.6295 55.854 19.6295Z" fill="white"/>
<path d="M55.8544 89.6456C70.4969 89.6456 82.367 77.7727 82.367 63.1268C82.367 48.4808 70.4969 36.6079 55.8544 36.6079C41.2119 36.6079 29.3418 48.4808 29.3418 63.1268C29.3418 77.7727 41.2119 89.6456 55.8544 89.6456Z" fill="#434DA0"/>
<path d="M55.8543 91.8261C40.0363 91.8261 27.1616 78.953 27.1616 63.1267C27.1616 47.3004 40.0317 34.4319 55.8543 34.4319C71.6723 34.4319 84.5469 47.305 84.5469 63.1267C84.5469 78.9484 71.6723 91.8261 55.8543 91.8261ZM55.8543 38.7885C42.4357 38.7885 31.5217 49.705 31.5217 63.1267C31.5217 76.5484 42.4403 87.465 55.8543 87.465C69.2728 87.465 80.1868 76.5439 80.1868 63.1267C80.1868 49.7096 69.2728 38.7885 55.8543 38.7885Z" fill="white"/>
<path d="M55.854 73.399C61.5258 73.399 66.1236 68.8001 66.1236 63.127C66.1236 57.4539 61.5258 52.855 55.854 52.855C50.1823 52.855 45.5845 57.4539 45.5845 63.127C45.5845 68.8001 50.1823 73.399 55.854 73.399Z" fill="url(#paint0_linear)"/>
<path d="M55.8539 75.5795C48.9893 75.5795 43.4043 69.9932 43.4043 63.1269C43.4043 56.2606 48.9893 50.6743 55.8539 50.6743C62.7186 50.6743 68.3036 56.2606 68.3036 63.1269C68.3036 69.9932 62.7186 75.5795 55.8539 75.5795ZM55.8539 55.0309C51.3933 55.0309 47.7598 58.6606 47.7598 63.1269C47.7598 67.5932 51.3887 71.2229 55.8539 71.2229C60.3146 71.2229 63.948 67.5932 63.948 63.1269C63.948 58.6606 60.3146 55.0309 55.8539 55.0309Z" fill="white"/>
<path d="M126.818 78.4457L128.993 82.8388L119.766 80.7131C116.745 80.0183 114.19 78.0023 112.814 75.2229L126.818 78.4457Z" fill="#434DA0"/>
<path d="M127.12 77.1293L130.995 74.1305L121.768 72.0048C118.747 71.3099 115.57 72.0048 113.116 73.9019L127.12 77.1293Z" fill="#434DA0"/>
<path d="M127.33 76.9463L126.964 78.528L67.0786 64.736L67.4442 63.1543L127.33 76.9463Z" fill="url(#paint1_linear)"/>
<path d="M70.2232 62.3726C71.1327 62.5829 70.1456 66.8618 69.2406 66.6515L55.461 61.6914C54.9537 61.5086 55.1274 60.7497 55.6667 60.8046L70.2232 62.3726Z" fill="url(#paint2_linear)"/>
<path d="M84.8393 124.092C84.8393 124.092 85.5751 125.152 85.6117 126.642C85.6208 126.994 85.3375 127.282 84.9855 127.296L79.3228 127.493C79.0578 127.502 78.9389 127.163 79.1492 127.003C80.1958 126.213 82.2525 124.736 83.7561 124.128L84.8393 124.092Z" fill="url(#paint3_linear)"/>
<path d="M84.9808 122.286L84.8345 124.462C84.8163 124.704 84.6106 124.896 84.3638 124.878C84.2176 124.864 84.0393 124.828 83.8428 124.741C83.6554 124.658 83.5412 124.466 83.5503 124.261L83.6509 121.632L84.9808 122.286Z" fill="url(#paint4_linear)"/>
<path d="M116.38 114.597C116.38 114.597 117.559 114.075 119.03 114.322C119.378 114.382 119.606 114.715 119.551 115.063L118.669 120.658C118.628 120.919 118.276 120.974 118.157 120.736C117.582 119.561 116.517 117.262 116.21 115.666L116.38 114.597Z" fill="url(#paint5_linear)"/>
<path d="M114.629 114.112L116.736 114.665C116.974 114.729 117.12 114.971 117.056 115.205C117.015 115.346 116.946 115.515 116.823 115.689C116.704 115.858 116.494 115.931 116.297 115.886L113.738 115.291L114.629 114.112Z" fill="url(#paint6_linear)"/>
<path d="M85.7442 70.0754C85.7442 70.0754 85.5568 69.6366 85.5842 69.376C85.6162 69.1155 85.6208 68.3063 85.1363 67.9635C85.1363 67.9635 84.8712 67.9772 84.8667 68.2698C84.5559 67.9361 84.5422 67.6527 84.2222 67.8538C83.9023 68.0595 82.7003 68.7863 83.299 69.2663C83.8977 69.7463 84.8438 70.6651 84.8438 70.6651L85.7442 70.0754Z" fill="url(#paint7_linear)"/>
<path d="M96.1689 105.093C96.1689 105.093 97.2384 113.646 100.31 113.97C103.376 114.295 115.127 115.995 115.127 115.995L115.451 114.231C115.451 114.231 108.664 110.117 104.615 110.185C102.59 107.182 103.084 98.8845 103.084 98.8845L96.1689 105.093Z" fill="url(#paint8_linear)"/>
<path d="M108.788 75.232C108.427 84.768 103.427 85.6091 103.427 85.6091V97.8057H96.3747C96.3747 97.8057 92.9561 89.4766 93.0429 86.6926C87.9561 84.5394 85.383 72.2423 84.8438 70.6697C85.0951 70.4777 85.2277 70.4869 85.7395 70.0754C92.6727 81.1109 94.3637 82.8069 94.3637 82.8069H98.2805C105.808 82.1303 107.659 74.976 107.659 74.976L108.788 75.232Z" fill="url(#paint9_linear)"/>
<path d="M103.207 97.7829C103.207 97.7829 103.769 103.758 92.0008 108.416C89.1306 113.769 85.3601 123.749 85.3601 123.749H82.8784C82.8784 123.749 84.574 108.677 87.5767 105.673C90.5794 102.67 93.8564 99.2915 96.3746 97.8103C102.197 97.1977 103.207 97.7829 103.207 97.7829Z" fill="url(#paint10_linear)"/>
<path d="M98.1891 78.3589L99.4871 82.9303C99.4871 82.9303 97.2705 84.1235 95.6297 83.7989L95.1772 79.7669L98.1891 78.3589Z" fill="url(#paint11_linear)"/>
<path d="M95.4971 75.0399C95.4514 75.0948 93.6826 79.4834 93.6826 79.4834L96.2101 80.4388L98.4998 76.5257C98.5044 76.5257 96.2969 74.1439 95.4971 75.0399Z" fill="url(#paint12_linear)"/>
<path d="M97.4533 77.0423L96.4067 79.1954C96.393 79.2228 96.3747 79.2503 96.3564 79.2731C96.2331 79.4148 95.7669 79.8674 95.3327 79.3646C94.9396 78.9074 94.574 78.496 94.2038 78.3863C94.0393 78.336 93.861 78.4229 93.7971 78.5829C93.6371 78.9806 93.2943 79.8857 93.1115 80.7223C93.0749 80.8914 93.1755 81.0606 93.34 81.1108C93.8382 81.2663 94.8939 81.5588 95.8034 81.6C95.9268 81.6046 96.0411 81.5451 96.1051 81.44C96.4159 80.928 97.3574 79.3691 97.691 78.9714C98.0018 78.6011 98.6508 78.688 98.9204 78.7429C99.0072 78.7611 99.0987 78.7429 99.1764 78.6926C99.4369 78.5097 99.9533 78.0297 99.3866 77.3166C99.2678 77.1657 99.2952 76.9509 99.4506 76.8366C99.7522 76.608 100.1 76.1874 99.7065 75.5657C99.3089 74.9349 98.6828 74.9577 98.2943 75.0537C98.1343 75.0903 97.9789 75.008 97.9104 74.8617C97.8738 74.7794 97.7961 74.7063 97.6544 74.7063C97.4625 74.7017 97.3162 74.5234 97.3436 74.3314C97.3939 73.9612 97.3116 73.4812 96.6947 73.2114C95.5978 72.7314 94.766 73.7463 94.6014 74.56C94.4369 75.3737 95.6572 75.8263 96.4022 75.8537C96.9689 75.8766 97.3208 76.48 97.4579 76.768C97.499 76.8457 97.499 76.9509 97.4533 77.0423Z" fill="url(#paint13_linear)"/>
<path d="M97.3115 79.744C97.3115 79.744 97.6543 78.3406 98.2576 78.3406C98.8563 78.336 99.3773 78.8892 98.7009 79.6206C97.8508 80.5302 97.3115 79.744 97.3115 79.744Z" fill="url(#paint14_linear)"/>
<path d="M109.025 72.7176C109.025 72.7176 107.504 72.0411 107.7 73.1748C107.897 74.3085 107.485 75.1314 108.354 75.2228C109.222 75.3096 109.318 73.4994 109.025 72.7176Z" fill="url(#paint15_linear)"/>
<g opacity="0.6">
<path opacity="0.3" d="M18.8526 22.7975C18.6058 22.8112 18.3864 22.6375 18.3498 22.3861C18.263 21.8421 18.2036 21.289 18.1625 20.7404C18.1442 20.4707 18.3453 20.2421 18.6149 20.2238C18.6195 20.2238 18.6195 20.2238 18.6241 20.2238C18.8891 20.2101 19.1131 20.4112 19.1314 20.6764C19.1679 21.1975 19.2274 21.7232 19.3096 22.2398C19.3508 22.505 19.1679 22.7518 18.9029 22.793C18.8891 22.7975 18.8709 22.7975 18.8526 22.7975ZM18.6698 18.5735C18.6515 18.5735 18.6332 18.5735 18.6104 18.5735C18.3407 18.5552 18.1396 18.3221 18.1579 18.057C18.1945 17.5084 18.2539 16.9552 18.3361 16.4112C18.3773 16.1461 18.6241 15.9632 18.8891 16.0044C19.1542 16.0455 19.337 16.2924 19.2959 16.5575C19.2182 17.0741 19.1588 17.5998 19.1268 18.121C19.1131 18.3678 18.912 18.5598 18.6698 18.5735ZM19.4193 14.409C19.3645 14.4135 19.3096 14.4044 19.2548 14.3907C18.9988 14.313 18.8526 14.0432 18.9303 13.7872C19.0902 13.2615 19.2731 12.7358 19.4742 12.2238C19.5747 11.9724 19.8535 11.8535 20.1049 11.9495C20.3562 12.0501 20.4751 12.329 20.3791 12.5804C20.1871 13.065 20.0135 13.5678 19.8626 14.0661C19.7986 14.2673 19.6204 14.3998 19.4193 14.409ZM21.0829 10.5187C20.9915 10.5232 20.9001 10.505 20.8178 10.4547C20.5847 10.3221 20.5025 10.025 20.635 9.79182C20.9047 9.31182 21.2017 8.84096 21.5125 8.38839C21.6634 8.16896 21.965 8.10954 22.1889 8.26496C22.4083 8.41582 22.4677 8.71754 22.3123 8.94154C22.0153 9.37125 21.7365 9.81925 21.476 10.2764C21.3983 10.4227 21.2429 10.5095 21.0829 10.5187ZM23.5738 7.09468C23.4504 7.09925 23.3224 7.05811 23.2218 6.96668C23.0253 6.78382 23.0116 6.47754 23.1898 6.28096C23.56 5.87411 23.9531 5.48096 24.3553 5.10611C24.5518 4.92325 24.858 4.93697 25.0408 5.13354C25.2237 5.33011 25.2099 5.63639 25.0134 5.81925C24.6295 6.17582 24.2547 6.55068 23.9028 6.93468C23.816 7.03525 23.6972 7.09011 23.5738 7.09468ZM26.7547 4.31068C26.5948 4.31982 26.4302 4.24668 26.3297 4.10497C26.1789 3.88554 26.2291 3.58382 26.4531 3.42839C26.9055 3.11297 27.3763 2.81582 27.8516 2.54154C28.0847 2.40897 28.3818 2.48668 28.5143 2.71982C28.6468 2.95297 28.5691 3.25011 28.3361 3.38268C27.8836 3.64325 27.4357 3.92668 27.0061 4.22382C26.9284 4.27868 26.8416 4.30611 26.7547 4.31068ZM44.4694 2.24897C44.4008 2.25354 44.3323 2.23982 44.2683 2.21697C43.7838 2.02497 43.2811 1.85125 42.7829 1.70497C42.527 1.62725 42.3807 1.35754 42.4584 1.10154C42.5361 0.845538 42.8058 0.699252 43.0617 0.772395C43.5873 0.927823 44.1175 1.11068 44.6294 1.31182C44.8807 1.41239 44.9995 1.69125 44.9036 1.94268C44.8213 2.12554 44.6522 2.23982 44.4694 2.24897ZM30.475 2.29925C30.2739 2.30839 30.0774 2.19411 29.9997 1.99754C29.8991 1.75068 30.0179 1.46725 30.2693 1.36668C30.7812 1.16097 31.3022 0.973538 31.8278 0.813538C32.0837 0.735823 32.358 0.877538 32.4357 1.13354C32.5134 1.38954 32.3717 1.66382 32.1112 1.74154C31.613 1.89239 31.1148 2.07068 30.6304 2.26725C30.5801 2.28554 30.5253 2.29925 30.475 2.29925ZM40.3835 1.15182C40.3515 1.15182 40.3195 1.15182 40.2875 1.14725C39.7711 1.06954 39.2455 1.01468 38.7245 0.978109C38.4548 0.959823 38.2537 0.731252 38.272 0.461538C38.2903 0.191824 38.5188 -0.0093192 38.7884 0.00896651C39.3369 0.0455379 39.8899 0.104966 40.4338 0.187252C40.6989 0.228395 40.8817 0.475252 40.8405 0.740395C40.804 0.968966 40.6074 1.13811 40.3835 1.15182ZM34.5517 1.17011C34.3049 1.18382 34.0856 1.01011 34.049 0.763252C34.0079 0.498109 34.1861 0.251252 34.4512 0.205538C34.9951 0.118681 35.5481 0.0546808 36.0965 0.0181094C36.1011 0.0181094 36.1057 0.0181094 36.1057 0.0181094C36.3707 0.00439508 36.5947 0.205538 36.613 0.466109C36.6312 0.735823 36.4301 0.964395 36.1651 0.987252C35.644 1.02382 35.1185 1.08325 34.602 1.16554C34.5837 1.17011 34.5654 1.17011 34.5517 1.17011Z" fill="#7784D6"/>
<path opacity="0.3" d="M47.5133 3.78047C47.4173 3.78504 47.3214 3.76218 47.2345 3.70732C47.0197 3.57475 46.8049 3.44675 46.5855 3.31875C46.3524 3.18618 46.2702 2.88904 46.4027 2.6559C46.5353 2.42275 46.8323 2.34047 47.0654 2.47304C47.2939 2.60561 47.527 2.74275 47.751 2.8799C47.9795 3.02161 48.048 3.32332 47.9064 3.54732C47.8149 3.69361 47.6687 3.77589 47.5133 3.78047Z" fill="#7784D6"/>
</g>
<g opacity="0.6">
<path opacity="0.3" d="M56.0276 15.8946C55.7945 15.9083 55.5797 15.7483 55.5294 15.5106C55.4791 15.2637 55.4197 15.0168 55.3557 14.7746C55.2872 14.514 55.4471 14.2488 55.7077 14.1848C55.9682 14.1163 56.2333 14.2763 56.2973 14.5368C56.3612 14.7928 56.4252 15.0534 56.4801 15.314C56.5349 15.5746 56.3704 15.8351 56.1053 15.89C56.0779 15.89 56.055 15.8946 56.0276 15.8946Z" fill="#7784D6"/>
<path opacity="0.3" d="M38.5143 38.7379C38.2903 38.747 38.0664 38.7562 37.8424 38.7607C37.5728 38.7653 37.3534 38.5504 37.3488 38.2853C37.3443 38.0156 37.5591 37.7962 37.8242 37.7916C38.3452 37.7824 38.8616 37.7504 39.3689 37.7002C39.634 37.6727 39.8717 37.8693 39.8991 38.1344C39.9265 38.3996 39.73 38.6419 39.4649 38.6647C39.1541 38.6967 38.8342 38.7242 38.5143 38.7379ZM35.283 38.6327C35.2556 38.6327 35.2282 38.6327 35.2008 38.6282C34.6615 38.5642 34.1222 38.4773 33.592 38.3676C33.3315 38.3127 33.1578 38.0567 33.2127 37.7962C33.2675 37.5356 33.5235 37.3619 33.784 37.4167C34.2867 37.5219 34.8032 37.6042 35.3105 37.6636C35.5755 37.6956 35.7675 37.9379 35.7355 38.203C35.7127 38.4407 35.5161 38.619 35.283 38.6327ZM41.9878 38.235C41.7592 38.2487 41.549 38.0933 41.4896 37.8647C41.4256 37.6042 41.5856 37.3436 41.8461 37.2796C42.3442 37.1607 42.847 37.0144 43.3314 36.8544C43.5874 36.7722 43.8616 36.9093 43.9439 37.1607C44.0307 37.4167 43.889 37.691 43.6376 37.7733C43.1258 37.9424 42.5956 38.0979 42.07 38.2213C42.0472 38.2304 42.0197 38.235 41.9878 38.235ZM31.2291 37.6864C31.1697 37.691 31.1057 37.6819 31.0418 37.659C30.5299 37.4807 30.0226 37.275 29.529 37.051C29.2867 36.9413 29.1771 36.6533 29.2867 36.4064C29.3964 36.1596 29.6844 36.0544 29.9312 36.1642C30.3973 36.3744 30.8818 36.571 31.3663 36.7402C31.6176 36.8316 31.7502 37.1059 31.6633 37.3619C31.5948 37.5539 31.4165 37.6773 31.2291 37.6864ZM45.9 36.8179C45.7126 36.827 45.5298 36.7264 45.4384 36.5482C45.3195 36.3059 45.4201 36.0179 45.6577 35.899C46.1194 35.6704 46.5718 35.4236 47.0151 35.1539C47.2437 35.0167 47.5453 35.0899 47.6824 35.3184C47.8195 35.547 47.7464 35.8487 47.5179 35.9859C47.0563 36.2647 46.5718 36.5299 46.0874 36.7676C46.0279 36.7996 45.964 36.8133 45.9 36.8179ZM49.4054 34.5733C49.2546 34.5824 49.1038 34.5184 49.0032 34.395C48.8341 34.1847 48.8661 33.8784 49.0764 33.7139C49.4786 33.3893 49.867 33.0464 50.2372 32.6899C50.4292 32.5024 50.74 32.5116 50.9228 32.7036C51.1102 32.8956 51.101 33.2064 50.9091 33.3893C50.516 33.7642 50.1047 34.1253 49.6842 34.4636C49.602 34.5322 49.5014 34.5687 49.4054 34.5733ZM52.335 31.6202C52.2208 31.6247 52.1065 31.5927 52.006 31.515C51.7957 31.3459 51.7592 31.0442 51.9283 30.8339C52.2482 30.4316 52.5544 30.011 52.8423 29.5813C52.9932 29.3573 53.2902 29.2979 53.5142 29.4487C53.7381 29.5996 53.7975 29.9013 53.6467 30.1207C53.3451 30.5687 53.0252 31.0122 52.687 31.4373C52.6001 31.5516 52.4721 31.611 52.335 31.6202ZM54.5562 28.0956C54.4785 28.1002 54.3963 28.0864 54.3186 28.0453C54.0763 27.9264 53.9758 27.6384 54.0946 27.3962C54.3186 26.9344 54.5288 26.4544 54.7116 25.9745C54.8076 25.723 55.091 25.5996 55.3378 25.6956C55.5891 25.7916 55.7125 26.075 55.6165 26.3219C55.4246 26.8247 55.2052 27.3322 54.9676 27.8167C54.8899 27.9904 54.7253 28.0864 54.5562 28.0956ZM55.9456 24.1687C55.8999 24.1687 55.8542 24.1687 55.8085 24.155C55.548 24.0956 55.3835 23.835 55.4474 23.5699C55.5663 23.0716 55.6622 22.5596 55.7354 22.0476C55.7719 21.7825 56.0233 21.5996 56.2838 21.6362C56.5489 21.6727 56.7317 21.9196 56.6951 22.1893C56.6175 22.7242 56.5169 23.2636 56.3935 23.7893C56.3432 24.0133 56.1604 24.1596 55.9456 24.1687ZM56.4438 20.0362C56.4346 20.0362 56.4255 20.0362 56.4118 20.0362C56.1421 20.0316 55.9273 19.8122 55.9319 19.547C55.9365 19.1676 55.9273 18.7836 55.909 18.4087C55.8999 18.2716 55.8953 18.1345 55.8816 18.0019C55.8633 17.7322 56.0644 17.5036 56.3295 17.4807C56.5992 17.4579 56.8277 17.6636 56.8505 17.9287C56.8597 18.0705 56.8688 18.2167 56.878 18.3585C56.8962 18.7562 56.9054 19.1585 56.9008 19.5562C56.9008 19.8167 56.6997 20.027 56.4438 20.0362Z" fill="#7784D6"/>
<path opacity="0.3" d="M27.4722 35.8671C27.3762 35.8717 27.2756 35.8488 27.1888 35.794C26.9649 35.6523 26.7409 35.506 26.5215 35.3551C26.3022 35.2043 26.2427 34.9026 26.3981 34.6786C26.549 34.4591 26.8506 34.3997 27.0746 34.5551C27.2802 34.6969 27.495 34.8386 27.7053 34.9711C27.9338 35.1129 28.0023 35.4146 27.8561 35.6386C27.7692 35.7803 27.623 35.858 27.4722 35.8671Z" fill="#7784D6"/>
</g>
<path d="M27.8379 30.2077C27.9019 30.2808 28.007 30.3037 28.0939 30.2625L30.635 29.1791C31.6953 29.9151 32.879 30.482 34.1587 30.8522L34.9266 33.5037C34.954 33.5951 35.0362 33.6637 35.1322 33.6682L38.4412 33.8328C38.5371 33.8374 38.6285 33.7825 38.6651 33.6911L39.6934 31.1311C41.0006 30.8934 42.2346 30.4454 43.3634 29.8191L45.7812 31.154C45.868 31.1997 45.9731 31.1905 46.0417 31.122L48.5005 28.9002C48.5736 28.8362 48.5965 28.7311 48.5554 28.6442L47.4722 26.1025C48.208 25.042 48.7747 23.858 49.1449 22.578L51.7957 21.81C51.8872 21.7825 51.9557 21.7002 51.9603 21.6042L52.1248 18.2945C52.1294 18.1985 52.0745 18.1071 51.9831 18.0705L49.4237 17.042C49.1861 15.7345 48.7382 14.5003 48.112 13.3711L49.4466 10.9528C49.4923 10.866 49.4831 10.7608 49.4146 10.6923L47.1934 8.23283C47.1294 8.15968 47.0243 8.13683 46.9375 8.17797L44.3963 9.2614C43.336 8.5254 42.1523 7.95854 40.8726 7.58826L40.1048 4.93683C40.0773 4.8454 39.9951 4.77683 39.8991 4.77226L36.5902 4.60769C36.4942 4.60312 36.4028 4.65797 36.3662 4.7494L35.3379 7.3094C34.0308 7.54711 32.7968 7.99511 31.6679 8.6214L29.2502 7.28654C29.1633 7.24083 29.0582 7.24997 28.9897 7.31854L26.5308 9.54025C26.4577 9.60425 26.4348 9.7094 26.476 9.79625L27.5591 12.338C26.8233 13.3985 26.2566 14.5825 25.8864 15.8625L23.2356 16.6305C23.1442 16.658 23.0756 16.7402 23.071 16.8362L22.9065 20.146C22.9019 20.242 22.9568 20.3334 23.0482 20.37L25.6076 21.3985C25.8453 22.706 26.2931 23.9402 26.9193 25.0694L25.5847 27.4877C25.539 27.5745 25.5482 27.6797 25.6167 27.7482L27.8379 30.2077Z" fill="#9FAEFF"/>
<path d="M37.6826 22.5414C36.0601 22.6237 34.5748 21.5037 34.2503 19.8671C33.8892 18.0659 35.0638 16.3059 36.8645 15.9494C37.7375 15.7757 38.6241 15.9494 39.3645 16.4431C40.1049 16.9368 40.6076 17.6911 40.7813 18.5597C41.1424 20.3608 39.9678 22.1208 38.1671 22.4774C38.0071 22.5139 37.8426 22.5368 37.6826 22.5414ZM37.3901 16.6625C37.2667 16.6671 37.1387 16.6854 37.0153 16.7082C35.6351 16.9825 34.7347 18.3311 35.0135 19.7117C35.2878 21.0922 36.636 21.9928 38.0162 21.7139C39.3965 21.4397 40.2968 20.0911 40.0181 18.7105C39.8855 18.0431 39.497 17.4625 38.9303 17.0877C38.4687 16.7814 37.934 16.6351 37.3901 16.6625Z" fill="#BDD0FB"/>
<path d="M37.9934 27.3461C37.7146 27.3598 37.4358 27.3598 37.1524 27.3461C37.0656 27.3415 36.9742 27.3369 36.8874 27.3278C36.4486 27.2912 36.0144 27.2227 35.5939 27.1175C35.5894 27.1175 35.5802 27.1129 35.5757 27.1129C35.5574 27.1084 35.5437 27.1038 35.5254 27.0992C35.4934 27.0901 35.4614 27.0809 35.4294 27.0764C35.3472 27.0535 35.2877 26.9804 35.2877 26.8981C35.2877 26.8798 35.2877 26.8569 35.2923 26.8387C35.3197 26.7335 35.4248 26.6741 35.53 26.7015C36.0647 26.8432 36.6131 26.9301 37.1707 26.9575C39.9312 27.0947 42.4312 25.7735 43.9257 23.6707C44.7575 22.5004 45.274 21.0924 45.3517 19.5564C45.3654 19.2867 45.3654 19.0169 45.3517 18.7518C45.2602 16.9644 44.561 15.2775 43.3453 13.9289C41.9467 12.3838 40.0318 11.4741 37.9523 11.3689C33.6561 11.1541 29.9861 14.4729 29.7713 18.7701C29.7576 19.0352 29.7576 19.3004 29.7713 19.5609C29.8307 20.6992 30.1369 21.8147 30.6763 22.8249C30.69 22.8524 30.6991 22.8798 30.6991 22.9072C30.7037 22.9804 30.6671 23.0535 30.5986 23.0901C30.5026 23.1404 30.3883 23.1038 30.3335 23.0078C29.7668 21.9472 29.4468 20.7769 29.3828 19.5792C29.3691 19.3049 29.3691 19.0261 29.3828 18.7472C29.6068 14.2352 33.4642 10.7518 37.9705 10.9758C40.1552 11.0855 42.1661 12.0409 43.6332 13.6638C44.9129 15.0764 45.6442 16.8501 45.7401 18.7244C45.7538 19.0032 45.7538 19.2867 45.7401 19.5655C45.6304 21.7507 44.6752 23.7621 43.0528 25.2295C41.6451 26.5187 39.8718 27.2501 37.9934 27.3461Z" fill="#BDD0FB"/>
<g opacity="0.6">
<path opacity="0.3" d="M2.95696 36.425C2.82899 36.4296 2.7056 36.3518 2.65989 36.2238C2.57763 35.9816 2.49993 35.7393 2.4268 35.4924C2.3811 35.3324 2.47251 35.1678 2.63247 35.1221C2.79243 35.0764 2.95696 35.1678 3.00267 35.3278C3.07122 35.561 3.14435 35.7941 3.22204 36.0273C3.27689 36.1827 3.19462 36.3564 3.03923 36.4113C3.01181 36.4204 2.98439 36.425 2.95696 36.425Z" fill="#7784D6"/>
<path opacity="0.3" d="M2.39496 34.1851C2.24414 34.1942 2.10703 34.0845 2.08417 33.9291C2.01562 33.4948 1.97449 33.0559 1.95163 32.6171C1.94706 32.5256 1.94249 32.4342 1.94249 32.3382C1.93792 32.1736 2.07503 32.0411 2.235 32.0273C2.39953 32.0228 2.53664 32.1508 2.54578 32.3199C2.55035 32.4068 2.55035 32.4982 2.55492 32.5851C2.57777 33.0011 2.61891 33.4262 2.68289 33.8376C2.71031 34.0022 2.59605 34.1531 2.43152 34.1805C2.41781 34.1851 2.40867 34.1851 2.39496 34.1851ZM2.30355 31.0719C2.28984 31.0719 2.27613 31.0719 2.26242 31.0719C2.09789 31.0582 1.97449 30.9119 1.99277 30.7473C2.04304 30.217 2.12531 29.6868 2.235 29.1702C2.27156 29.0102 2.43152 28.905 2.59148 28.9416C2.75145 28.9782 2.85656 29.1382 2.82 29.2982C2.71031 29.7919 2.63262 30.2993 2.58691 30.8022C2.5732 30.9531 2.4498 31.0673 2.30355 31.0719ZM2.97082 28.0319C2.93426 28.0319 2.89313 28.0273 2.85656 28.0136C2.70117 27.9588 2.61891 27.785 2.67375 27.6296C2.85199 27.1313 3.06223 26.633 3.29989 26.1576C3.37301 26.0113 3.55583 25.9473 3.70208 26.025C3.84833 26.0982 3.91232 26.281 3.83462 26.4273C3.6061 26.8799 3.40958 27.3508 3.24047 27.8308C3.19477 27.9496 3.08508 28.0228 2.97082 28.0319ZM4.36021 25.2433C4.29623 25.2479 4.23681 25.2296 4.1774 25.193C4.04029 25.1016 4.00372 24.9142 4.09513 24.777C4.38763 24.3336 4.71213 23.9085 5.05947 23.5062C5.16916 23.3828 5.35655 23.369 5.48452 23.4742C5.60792 23.5839 5.6262 23.7713 5.51651 23.8993C5.18744 24.2833 4.87666 24.6902 4.59787 25.1108C4.54302 25.193 4.45162 25.2388 4.36021 25.2433ZM6.39402 22.8799C6.30718 22.8845 6.22034 22.8525 6.15636 22.7839C6.04667 22.6605 6.05581 22.473 6.17464 22.3588C6.56769 22.0022 6.98816 21.6639 7.41778 21.3576C7.55489 21.2616 7.74227 21.2936 7.83368 21.4308C7.92966 21.5679 7.89766 21.7553 7.76055 21.8468C7.34922 22.1393 6.94703 22.4593 6.57226 22.8022C6.52656 22.8525 6.458 22.8799 6.39402 22.8799ZM8.93513 21.0833C8.82087 21.0879 8.71118 21.033 8.65634 20.9233C8.57864 20.777 8.63349 20.5942 8.77974 20.5165C9.24592 20.265 9.73494 20.041 10.2285 19.849C10.3839 19.7896 10.5576 19.8673 10.617 20.0228C10.6764 20.1782 10.5987 20.3519 10.4433 20.4113C9.9726 20.5942 9.50643 20.8045 9.05853 21.0468C9.02197 21.0696 8.97627 21.0833 8.93513 21.0833ZM11.8373 19.9633C11.6956 19.9725 11.5677 19.8765 11.5311 19.7348C11.49 19.5748 11.5905 19.4102 11.7505 19.369C12.2623 19.241 12.7925 19.145 13.3227 19.081C13.4872 19.0628 13.638 19.177 13.6563 19.3416C13.6746 19.5062 13.5603 19.657 13.3958 19.6753C12.8931 19.7348 12.3857 19.8308 11.8967 19.9496C11.8739 19.9633 11.8556 19.9633 11.8373 19.9633ZM16.4854 19.689C16.4671 19.689 16.4488 19.689 16.4305 19.689C15.9963 19.6342 15.553 19.6022 15.1097 19.593C15.0411 19.593 14.9771 19.5885 14.9132 19.593C14.7486 19.593 14.6115 19.4605 14.6115 19.2913C14.6115 19.1268 14.7486 18.985 14.9132 18.9896C14.9817 18.9896 15.0548 18.9896 15.1234 18.9942C15.585 19.0033 16.0512 19.0353 16.5082 19.0948C16.6727 19.1176 16.787 19.2639 16.7687 19.4285C16.7504 19.5748 16.627 19.6845 16.4854 19.689Z" fill="#7784D6"/>
</g>
<g opacity="0.6">
<path opacity="0.3" d="M15.7221 44.8776C15.5576 44.8867 15.4205 44.7633 15.4068 44.5987C15.3976 44.4341 15.521 44.2924 15.6856 44.2787C16.1837 44.2467 16.6819 44.1827 17.1709 44.0913C17.3309 44.0638 17.4909 44.169 17.5229 44.329C17.5549 44.4936 17.4452 44.649 17.2852 44.681C16.7733 44.777 16.2477 44.8456 15.7221 44.8776C15.7267 44.8776 15.7267 44.8776 15.7221 44.8776ZM14.1911 44.8821C14.1819 44.8821 14.1682 44.8821 14.1591 44.8821C13.6381 44.8547 13.1125 44.7907 12.6006 44.6993C12.4361 44.6718 12.3309 44.5164 12.3584 44.3518C12.3858 44.1873 12.5457 44.0821 12.7057 44.1096C13.1947 44.1964 13.6975 44.2558 14.1956 44.2833C14.3602 44.2924 14.4881 44.4341 14.479 44.5987C14.4653 44.7541 14.3419 44.8776 14.1911 44.8821ZM18.734 44.3153C18.6015 44.3198 18.4735 44.2376 18.4324 44.105C18.3821 43.9496 18.4689 43.7804 18.6289 43.7301C19.1042 43.5793 19.575 43.3964 20.0274 43.1907C20.1782 43.1221 20.3565 43.1861 20.425 43.337C20.4936 43.4878 20.4296 43.6661 20.2788 43.7347C19.8035 43.9496 19.3099 44.1416 18.8117 44.3016C18.7843 44.3061 18.7569 44.3107 18.734 44.3153ZM11.1746 44.3427C11.1426 44.3427 11.1061 44.3381 11.0695 44.329C10.5714 44.1736 10.0732 43.9907 9.59787 43.7758C9.44705 43.7073 9.37849 43.529 9.44705 43.3781C9.5156 43.2273 9.69385 43.1587 9.84467 43.2273C10.2971 43.433 10.7724 43.6067 11.2478 43.753C11.4077 43.8033 11.4946 43.9678 11.4443 44.1278C11.4077 44.2558 11.2935 44.3381 11.1746 44.3427ZM21.5174 43.0398C21.4122 43.0444 21.3071 42.9941 21.2477 42.8981C21.1609 42.7564 21.2066 42.5736 21.3482 42.4867C21.7733 42.2261 22.1846 41.9381 22.5731 41.6273C22.7011 41.5221 22.893 41.545 22.9936 41.6776C23.0987 41.8056 23.0758 41.9976 22.9433 42.0981C22.5365 42.4227 22.1024 42.7244 21.659 42.9987C21.6133 43.0216 21.5676 43.0353 21.5174 43.0398ZM23.9122 41.1336C23.83 41.1381 23.7477 41.1107 23.6883 41.0467C23.5694 40.9324 23.5694 40.7404 23.6837 40.6216C24.0356 40.265 24.3647 39.8856 24.6709 39.4924C24.7714 39.3598 24.9588 39.337 25.0914 39.4375C25.2239 39.5381 25.2468 39.7256 25.1462 39.8581C24.8263 40.2696 24.4789 40.6673 24.1133 41.0421C24.0585 41.097 23.9853 41.129 23.9122 41.1336ZM25.7861 38.7061C25.7312 38.7107 25.6718 38.697 25.617 38.665C25.4753 38.5827 25.4296 38.3953 25.5118 38.2535C25.7678 37.8238 25.9963 37.3758 26.1974 36.9233C26.2659 36.7724 26.4396 36.7038 26.5904 36.7678C26.7413 36.8364 26.8098 37.0101 26.7458 37.1655C26.5356 37.641 26.2934 38.1118 26.0283 38.5644C25.9734 38.6513 25.882 38.7015 25.7861 38.7061Z" fill="#7784D6"/>
<path opacity="0.3" d="M8.36387 43.0856C8.30445 43.0902 8.24504 43.0765 8.19477 43.0445C7.97539 42.9119 7.76058 42.7702 7.55035 42.6285C7.41323 42.5325 7.38124 42.3496 7.47265 42.2125C7.56863 42.0753 7.75144 42.0433 7.88855 42.1348C8.08508 42.2719 8.29531 42.4045 8.50098 42.5325C8.64266 42.6193 8.68836 42.8022 8.60153 42.9439C8.55125 43.0308 8.45985 43.0811 8.36387 43.0856Z" fill="#7784D6"/>
</g>
<path d="M8.41391 39.1998C8.45961 39.2501 8.52817 39.2638 8.58758 39.2364L10.2878 38.5095C10.9962 38.9987 11.7914 39.3827 12.6461 39.6295L13.1579 41.4032C13.1762 41.4672 13.2311 41.5084 13.295 41.513L15.5071 41.6227C15.5711 41.6272 15.6305 41.5861 15.6533 41.5267L16.3435 39.8124C17.2164 39.6524 18.0436 39.3507 18.8023 38.9347L20.4202 39.8261C20.4751 39.8581 20.5482 39.849 20.5939 39.8078L22.2392 38.3221C22.2895 38.2764 22.3032 38.2078 22.2758 38.1484L21.5491 36.4478C22.0381 35.7392 22.422 34.9438 22.6688 34.089L24.4421 33.577C24.5061 33.5587 24.5472 33.5038 24.5518 33.4398L24.6615 31.2272C24.6661 31.1632 24.6249 31.1038 24.5655 31.081L22.8516 30.3907C22.6917 29.5175 22.39 28.6901 21.9741 27.9312L22.8654 26.3129C22.8973 26.2581 22.8882 26.1849 22.8471 26.1392L21.3617 24.4935C21.316 24.4432 21.2474 24.4295 21.188 24.4569L19.4879 25.1838C18.7795 24.6947 17.9842 24.3107 17.1296 24.0638L16.6177 22.2901C16.5994 22.2261 16.5446 22.1849 16.4806 22.1804L14.2685 22.0707C14.2045 22.0661 14.1451 22.1072 14.1223 22.1667L13.4322 23.8809C12.5592 24.0409 11.732 24.3427 10.9733 24.7587L9.35997 23.8627C9.30513 23.8307 9.232 23.8398 9.1863 23.8809L7.54097 25.3667C7.4907 25.4124 7.47699 25.4809 7.50441 25.5404L8.22652 27.2455C7.7375 27.9541 7.35359 28.7495 7.10679 29.6044L5.33349 30.1164C5.26951 30.1347 5.22837 30.1895 5.2238 30.2535L5.11412 32.4661C5.10955 32.5301 5.15068 32.5895 5.21009 32.6124L6.92397 33.3027C7.08394 34.1758 7.38558 35.0032 7.80148 35.7621L6.91026 37.3804C6.87827 37.4352 6.88741 37.5084 6.92854 37.5541L8.41391 39.1998Z" fill="#9FAEFF"/>
<path d="M14.9998 34.1165C14.5153 34.1394 14.04 34.0114 13.6287 33.7371C13.126 33.3988 12.7832 32.8868 12.6644 32.2925C12.4176 31.0674 13.2174 29.8697 14.4422 29.6228C15.6717 29.3805 16.8645 30.1759 17.1113 31.4011C17.2301 31.9954 17.1113 32.5988 16.7731 33.1062C16.4349 33.6091 15.923 33.9519 15.3289 34.0708C15.2238 34.0937 15.1141 34.1074 14.9998 34.1165ZM14.8079 30.1805C14.7256 30.1851 14.6479 30.1942 14.5656 30.2125C13.6653 30.3954 13.0757 31.2731 13.2585 32.1782C13.3453 32.6171 13.5967 32.9919 13.9669 33.2388C14.3371 33.4857 14.7804 33.5725 15.2192 33.4857C15.6579 33.3988 16.0327 33.1474 16.2795 32.7771C16.5263 32.4068 16.6131 31.9588 16.5263 31.5245C16.3618 30.7017 15.6214 30.1394 14.8079 30.1805Z" fill="#BDD0FB"/>
<path d="M15.2144 37.458C15.027 37.4671 14.8351 37.4671 14.6386 37.458C14.2546 37.4397 13.8707 37.3802 13.5005 37.2842C13.4823 37.2797 13.4685 37.2751 13.4503 37.2705C13.3223 37.234 13.2355 37.1242 13.2263 36.9962C13.2263 36.9642 13.2263 36.9322 13.2355 36.9048C13.2766 36.7448 13.4411 36.6488 13.6011 36.6945C13.9484 36.786 14.3049 36.8454 14.6614 36.8591C14.6797 36.8591 14.7025 36.8591 14.7208 36.8637C15.5709 36.9002 16.3981 36.7174 17.1385 36.3517C17.5407 36.1505 17.9201 35.8991 18.2674 35.5928C18.272 35.5882 18.272 35.5882 18.2766 35.5837C18.2857 35.5745 18.2948 35.57 18.304 35.5608C19.3049 34.6557 19.8945 33.4168 19.9584 32.0682C19.9676 31.8945 19.9676 31.7208 19.9584 31.5471C19.899 30.3905 19.4466 29.298 18.6605 28.4248C17.7555 27.4237 16.517 26.8385 15.1687 26.77C13.8205 26.7014 12.5271 27.1631 11.5262 28.0682C10.5252 28.9734 9.93567 30.2122 9.87168 31.5608C9.86254 31.7345 9.86254 31.9037 9.87168 32.0728C9.90825 32.8134 10.1093 33.5311 10.4567 34.1848C10.4795 34.226 10.4887 34.2671 10.4933 34.3128C10.4978 34.4271 10.443 34.5368 10.3333 34.5917C10.187 34.6694 10.0042 34.6145 9.92653 34.4682C9.53805 33.7368 9.3141 32.9322 9.27297 32.1048C9.26383 31.9128 9.26383 31.7208 9.27297 31.5288C9.35066 30.0202 10.0042 28.6351 11.124 27.6202C12.2437 26.61 13.6879 26.0888 15.1961 26.1665C16.7044 26.2397 18.0892 26.898 19.1038 28.018C19.9859 28.9917 20.4886 30.2168 20.5572 31.5105C20.5663 31.7025 20.5663 31.8991 20.5572 32.0911C20.42 35.0122 18.0709 37.3117 15.2144 37.458Z" fill="#BDD0FB"/>
<defs>
<linearGradient id="paint0_linear" x1="126.308" y1="-87.2788" x2="33.86" y2="109.983" gradientUnits="userSpaceOnUse">
<stop stop-color="#FF928E"/>
<stop offset="1" stop-color="#FE7062"/>
</linearGradient>
<linearGradient id="paint1_linear" x1="52.6698" y1="48.3434" x2="101.158" y2="72.827" gradientUnits="userSpaceOnUse">
<stop stop-color="#09005D"/>
<stop offset="1" stop-color="#1A0F91"/>
</linearGradient>
<linearGradient id="paint2_linear" x1="60.989" y1="61.6229" x2="101.572" y2="75.036" gradientUnits="userSpaceOnUse">
<stop stop-color="#09005D"/>
<stop offset="1" stop-color="#1A0F91"/>
</linearGradient>
<linearGradient id="paint3_linear" x1="85.5778" y1="125.67" x2="78.9971" y2="125.9" gradientUnits="userSpaceOnUse">
<stop stop-color="#09005D"/>
<stop offset="1" stop-color="#1A0F91"/>
</linearGradient>
<linearGradient id="paint4_linear" x1="85.0931" y1="123.108" x2="83.4163" y2="123.339" gradientUnits="userSpaceOnUse">
<stop stop-color="#FEBBBA"/>
<stop offset="1" stop-color="#FF928E"/>
</linearGradient>
<linearGradient id="paint5_linear" x1="118.067" y1="114.169" x2="117.044" y2="120.675" gradientUnits="userSpaceOnUse">
<stop stop-color="#09005D"/>
<stop offset="1" stop-color="#1A0F91"/>
</linearGradient>
<linearGradient id="paint6_linear" x1="115.46" y1="114.159" x2="115.368" y2="115.849" gradientUnits="userSpaceOnUse">
<stop stop-color="#FEBBBA"/>
<stop offset="1" stop-color="#FF928E"/>
</linearGradient>
<linearGradient id="paint7_linear" x1="83.196" y1="68.7268" x2="85.8954" y2="69.6152" gradientUnits="userSpaceOnUse">
<stop stop-color="#FEBBBA"/>
<stop offset="1" stop-color="#FF928E"/>
</linearGradient>
<linearGradient id="paint8_linear" x1="103" y1="105.823" x2="115.537" y2="130.02" gradientUnits="userSpaceOnUse">
<stop stop-color="#09005D"/>
<stop offset="1" stop-color="#1A0F91"/>
</linearGradient>
<linearGradient id="paint9_linear" x1="69.2106" y1="115.07" x2="89.8458" y2="89.5582" gradientUnits="userSpaceOnUse">
<stop stop-color="#FF928E"/>
<stop offset="1" stop-color="#FE7062"/>
</linearGradient>
<linearGradient id="paint10_linear" x1="85.4509" y1="109.199" x2="100.366" y2="112.241" gradientUnits="userSpaceOnUse">
<stop stop-color="#09005D"/>
<stop offset="1" stop-color="#1A0F91"/>
</linearGradient>
<linearGradient id="paint11_linear" x1="92.8934" y1="71.2049" x2="102.575" y2="95.0099" gradientUnits="userSpaceOnUse">
<stop stop-color="#FEBBBA"/>
<stop offset="1" stop-color="#FF928E"/>
</linearGradient>
<linearGradient id="paint12_linear" x1="96.2743" y1="75.7709" x2="95.5574" y2="84.7464" gradientUnits="userSpaceOnUse">
<stop stop-color="#FEBBBA"/>
<stop offset="1" stop-color="#FF928E"/>
</linearGradient>
<linearGradient id="paint13_linear" x1="98.2208" y1="79.8214" x2="93.3748" y2="75.5121" gradientUnits="userSpaceOnUse">
<stop stop-color="#09005D"/>
<stop offset="1" stop-color="#1A0F91"/>
</linearGradient>
<linearGradient id="paint14_linear" x1="98.4353" y1="85.3061" x2="98.1507" y2="79.0734" gradientUnits="userSpaceOnUse">
<stop stop-color="#FEBBBA"/>
<stop offset="1" stop-color="#FF928E"/>
</linearGradient>
<linearGradient id="paint15_linear" x1="107.519" y1="73.7044" x2="109.176" y2="74.0424" gradientUnits="userSpaceOnUse">
<stop stop-color="#FEBBBA"/>
<stop offset="1" stop-color="#FF928E"/>
</linearGradient>
</defs>
</svg>
