<svg width="129" height="128" viewBox="0 0 129 128" fill="none" xmlns="http://www.w3.org/2000/svg">
<path d="M113.486 109.757C110.85 112.501 108.357 114.267 106.384 115.669C83.2226 132.1 55.8167 127.308 49.9917 126.142C41.3924 124.417 24.7654 121.078 12.7422 107.101C-5.44705 85.9574 -2.6129 52.6489 11.4933 30.6615C14.074 26.6403 27.7056 4.31629 55.4065 0.737807C72.1718 -1.42957 91.7159 2.94208 105.868 14.6598C135.574 39.2665 133.458 88.9687 113.486 109.757Z" fill="#EDF0FF"/>
<g opacity="0.79">
<path d="M98.6193 92.6023C104.297 93.2848 110.965 86.6305 112.749 79.7871C114.583 72.7454 110.02 70.2091 109.315 60.6865C108.513 49.8726 114.007 47.8067 116.597 32.944C117.182 29.5915 120.56 10.1865 114.265 7.08759C108.444 4.22388 93.5547 14.8994 91.7574 27.2258C90.4763 36.0152 96.7944 39.1741 95.269 49.4115C93.9326 58.3946 88.6237 58.9341 87.2504 67.6082C85.573 78.1731 91.163 91.7031 98.6193 92.6023Z" fill="#9FAEFF"/>
<path opacity="0.79" d="M99.2276 95.1939C96.8175 83.6607 98.3612 65.4639 100.085 52.2244C101.951 37.892 104.412 26.1282 104.44 26.0129L104.914 26.1144C104.891 26.2297 102.426 37.9796 100.564 52.2936C98.8451 65.4916 97.3059 83.633 99.7023 95.097L99.2276 95.1939Z" fill="url(#paint0_linear)"/>
</g>
<path d="M109.449 115.046C115.126 115.729 121.795 109.075 123.578 102.231C125.412 95.1895 120.85 92.6532 120.145 83.1306C119.343 72.3167 124.836 70.2508 127.426 55.3881C128.011 52.0356 131.389 32.6306 125.094 29.5317C119.274 26.668 104.384 37.3435 102.587 49.6699C101.306 58.4593 107.624 61.6181 106.099 71.8556C104.762 80.8387 99.4533 81.3782 98.08 90.0523C96.3979 100.617 101.992 114.147 109.449 115.046Z" fill="#D0D7FF"/>
<path d="M110.057 117.634C107.647 106.1 109.191 87.9036 110.914 74.6641C112.781 60.3317 115.241 48.5679 115.269 48.4526L115.744 48.5541C115.721 48.6694 113.255 60.4194 111.393 74.7333C109.675 87.9313 108.135 106.073 110.532 117.537L110.057 117.634Z" fill="#7784D6"/>
<g opacity="0.79">
<path d="M40.6044 104.454C51.5631 99.8193 56.683 81.2813 51.199 74.6823C47.4939 70.223 41.351 74.1012 36.1066 69.3653C29.4153 63.3151 35.4983 53.4327 30.9683 39.6122C27.1111 27.853 16.5303 16.163 9.66378 17.8277C2.47011 19.5755 -2.6037 36.4303 2.54385 47.2349C5.88953 54.2628 11.8205 55.0744 12.6085 61.4198C13.521 68.7842 6.01395 71.505 5.40565 78.5236C4.31807 91.1405 26.1065 110.582 40.6044 104.454Z" fill="#D0D7FF"/>
<path opacity="0.79" d="M34.5397 108.816C34.6043 108.821 34.6688 108.812 34.7287 108.789C34.9499 108.701 35.0605 108.452 34.9729 108.231C23.3552 78.3576 21.9589 44.6756 21.9451 44.3389C21.9358 44.1038 21.7377 43.9147 21.4981 43.9239C21.263 43.9331 21.0741 44.1314 21.0833 44.3712C21.0971 44.7079 22.4981 78.5328 34.1711 108.544C34.2356 108.706 34.3831 108.802 34.5397 108.816Z" fill="#7784D6"/>
<path opacity="0.79" d="M10.332 52.0953C10.3781 52.0999 10.4196 52.086 10.461 52.063C10.5578 51.9984 10.5809 51.8739 10.5209 51.7771C6.57618 45.7684 2.38717 36.8821 4.81578 28.6691C6.26281 23.7764 9.41494 21.4199 9.4472 21.3969C9.53936 21.3277 9.5578 21.2032 9.49328 21.1109C9.42415 21.0187 9.29973 21.0003 9.20756 21.0648C9.07392 21.1617 5.91257 23.5273 4.42407 28.5538C3.05999 33.1699 2.94939 40.9863 10.1799 52.0076C10.2122 52.0584 10.2675 52.0906 10.332 52.0953Z" fill="url(#paint1_linear)"/>
<path opacity="0.79" d="M41.7565 102.019C41.821 102.024 41.8901 102.001 41.9316 101.945C49.494 92.6164 52.4157 85.1689 50.6184 79.815C49.0193 75.056 44.1206 73.797 44.0699 73.7832C43.9593 73.7555 43.8487 73.8247 43.8211 73.9354C43.7934 74.0461 43.8625 74.1567 43.9731 74.1844C44.0192 74.1982 48.7105 75.4064 50.2313 79.9533C51.9779 85.1643 49.0792 92.478 41.6136 101.687C41.5399 101.775 41.5537 101.904 41.6459 101.978C41.6782 102.001 41.715 102.019 41.7565 102.019Z" fill="#F0F0F0"/>
</g>
<path d="M31.8439 0.474857C28.701 0.746932 26.2954 3.38007 26.2862 6.5343C26.2309 25.8286 26.1433 92.3718 27.3968 115.923C27.5304 118.417 29.5719 120.377 32.0697 120.405C44.4201 120.539 79.9461 120.783 100.112 119.492C104.315 119.224 107.582 115.743 107.578 111.528C107.555 91.2789 107.232 34.3367 104.458 8.3051C104.126 5.18776 101.619 2.75291 98.4948 2.50851C85.0245 1.46171 49.2589 -1.04231 31.8439 0.474857Z" fill="url(#paint2_linear)"/>
<path d="M31.2448 11.593C31.0005 28.0974 30.3139 82.9921 31.5167 103.255C31.6918 106.215 33.9914 108.553 36.8301 108.655C48.5169 109.061 78.4898 109.849 95.5684 107.972C98.6422 107.636 100.992 104.966 101.075 101.738C101.504 84.8966 102.656 33.7649 101.486 13.7281C101.297 10.5324 98.8588 7.98228 95.7989 7.77476C83.1397 6.91703 50.646 4.95255 36.1204 6.16075C33.3969 6.38671 31.2862 8.73394 31.2448 11.593Z" fill="#9FAEFF"/>
<g opacity="0.56">
<path d="M33.2817 14.0141C33.0651 29.7068 32.4568 81.8992 33.5859 101.166C33.7518 103.983 35.89 106.206 38.526 106.303C49.388 106.695 77.241 107.465 93.1122 105.685C95.9694 105.367 98.1538 102.831 98.2275 99.7594C98.6146 83.7484 99.6607 35.1345 98.5593 16.0846C98.3842 13.0457 96.1123 10.62 93.2735 10.4218C81.5129 9.60553 51.3097 7.71484 37.8117 8.85847C35.2817 9.06599 33.3186 11.2979 33.2817 14.0141Z" fill="#D0D7FF"/>
</g>
<path d="M59.4802 3.34329C59.4894 3.79982 59.8535 4.16874 60.3097 4.18257C62.5586 4.25175 68.8952 4.44543 71.7247 4.54688C72.2823 4.56532 72.7109 4.05806 72.5911 3.5093C72.5819 3.49086 72.5081 2.78992 71.7938 2.7438C69.8767 2.61007 64.0978 2.25038 60.2821 2.47173C59.4987 2.51323 59.4572 3.40785 59.4802 3.34329Z" fill="#1F5AA9"/>
<path d="M78.4253 27.3138H38.2956C37.95 27.3138 37.6643 27.0325 37.6643 26.682V14.102C37.6643 13.7284 37.9684 13.4241 38.3417 13.4241H78.9784V26.7558C78.9784 27.0647 78.7295 27.3138 78.4253 27.3138Z" fill="url(#paint3_linear)"/>
<path d="M74.4852 13.4285H83.2595C83.4531 13.4285 83.5222 13.7697 83.3517 13.8942L75.499 19.7784L74.4852 13.4285Z" fill="url(#paint4_linear)"/>
<path opacity="0.63" d="M65.9966 17.7082H51.0793C50.9503 17.7082 50.8489 17.6022 50.8489 17.4776C50.8489 17.3531 50.9549 17.2471 51.0793 17.2471H65.9966C66.1256 17.2471 66.227 17.3531 66.227 17.4776C66.227 17.6022 66.1256 17.7082 65.9966 17.7082Z" fill="white"/>
<path opacity="0.63" d="M48.8764 17.7082H42.0146C41.8855 17.7082 41.7841 17.6022 41.7841 17.4776C41.7841 17.3531 41.8901 17.2471 42.0146 17.2471H48.8718C49.0008 17.2471 49.1022 17.3531 49.1022 17.4776C49.1022 17.6022 49.0054 17.7082 48.8764 17.7082Z" fill="white"/>
<path opacity="0.63" d="M74.1994 20.1845H58.2683C58.1393 20.1845 58.0379 20.0785 58.0379 19.954C58.0379 19.8248 58.1439 19.7234 58.2683 19.7234H74.1994C74.3284 19.7234 74.4298 19.8295 74.4298 19.954C74.4344 20.0831 74.3284 20.1845 74.1994 20.1845Z" fill="white"/>
<path opacity="0.63" d="M56.9549 20.1845H42.1897C42.0607 20.1845 41.9593 20.0785 41.9593 19.954C41.9593 19.8248 42.0653 19.7234 42.1897 19.7234H56.9549C57.084 19.7234 57.1854 19.8295 57.1854 19.954C57.19 20.0831 57.084 20.1845 56.9549 20.1845Z" fill="white"/>
<path opacity="0.63" d="M61.9504 22.6611H42.0422C41.9132 22.6611 41.8118 22.555 41.8118 22.4305C41.8118 22.3014 41.9178 22.2 42.0422 22.2H61.9504C62.0794 22.2 62.1808 22.306 62.1808 22.4305C62.1808 22.555 62.0794 22.6611 61.9504 22.6611Z" fill="white"/>
<path d="M54.0193 46.1422H94.149C94.4946 46.1422 94.7804 45.8609 94.7804 45.5104V32.935C94.7804 32.5614 94.4762 32.2571 94.1029 32.2571H53.4663V45.5888C53.4663 45.8931 53.7151 46.1422 54.0193 46.1422Z" fill="#434DA0"/>
<path d="M57.9641 32.2571H49.1897C48.9962 32.2571 48.927 32.5983 49.0976 32.7228L56.9502 38.6071L57.9641 32.2571Z" fill="#434DA0"/>
<path d="M78.8446 36.5412H58.4618C58.3327 36.5412 58.2314 36.4352 58.2314 36.3106C58.2314 36.1815 58.3373 36.0801 58.4618 36.0801H78.8446C78.9736 36.0801 79.075 36.1861 79.075 36.3106C79.075 36.4352 78.969 36.5412 78.8446 36.5412Z" fill="#91B3FA"/>
<path d="M90.43 36.5412H81.734C81.6049 36.5412 81.5035 36.4352 81.5035 36.3106C81.5035 36.1815 81.6095 36.0801 81.734 36.0801H90.43C90.559 36.0801 90.6604 36.1861 90.6604 36.3106C90.665 36.4352 90.559 36.5412 90.43 36.5412Z" fill="#91B3FA"/>
<path d="M69.4712 39.0131H58.2452C58.1161 39.0131 58.0147 38.9071 58.0147 38.7826C58.0147 38.6581 58.1207 38.552 58.2452 38.552H69.4712C69.6002 38.552 69.7016 38.6581 69.7016 38.7826C69.7016 38.9071 69.6002 39.0131 69.4712 39.0131Z" fill="#91B3FA"/>
<path d="M90.2549 39.0131H71.6878C71.5588 39.0131 71.4574 38.9071 71.4574 38.7826C71.4574 38.6581 71.5634 38.552 71.6878 38.552H90.2549C90.384 38.552 90.4854 38.6581 90.4854 38.7826C90.4854 38.9071 90.384 39.0131 90.2549 39.0131Z" fill="#91B3FA"/>
<path d="M77.4299 41.4892H61.9826C61.8536 41.4892 61.7522 41.3832 61.7522 41.2586C61.7522 41.1341 61.8582 41.0281 61.9826 41.0281H77.4299C77.5589 41.0281 77.6603 41.1341 77.6603 41.2586C77.6603 41.3832 77.5589 41.4892 77.4299 41.4892Z" fill="#91B3FA"/>
<path d="M90.407 41.4892H79.2132C79.0842 41.4892 78.9828 41.3832 78.9828 41.2586C78.9828 41.1341 79.0888 41.0281 79.2132 41.0281H90.407C90.536 41.0281 90.6374 41.1341 90.6374 41.2586C90.6374 41.3832 90.5314 41.4892 90.407 41.4892Z" fill="#91B3FA"/>
<path d="M78.7755 65.2242H38.6458C38.3002 65.2242 38.0145 64.9429 38.0145 64.5924V52.017C38.0145 51.6435 38.3186 51.3391 38.6919 51.3391H79.3285V64.6708C79.3285 64.9752 79.0843 65.2242 78.7755 65.2242Z" fill="url(#paint5_linear)"/>
<path d="M74.8353 51.3391H83.6096C83.8032 51.3391 83.8723 51.6804 83.7018 51.8049L75.8537 57.6891L74.8353 51.3391Z" fill="url(#paint6_linear)"/>
<path opacity="0.63" d="M74.3377 55.6233H53.9549C53.8258 55.6233 53.7245 55.5172 53.7245 55.3927C53.7245 55.2636 53.8304 55.1621 53.9549 55.1621H74.3377C74.4667 55.1621 74.5681 55.2682 74.5681 55.3927C74.5681 55.5172 74.4667 55.6233 74.3377 55.6233Z" fill="white"/>
<path opacity="0.63" d="M51.0654 55.6233H42.3694C42.2403 55.6233 42.139 55.5172 42.139 55.3927C42.139 55.2636 42.245 55.1621 42.3694 55.1621H51.0654C51.1944 55.1621 51.2958 55.2682 51.2958 55.3927C51.2958 55.5172 51.1944 55.6233 51.0654 55.6233Z" fill="white"/>
<path opacity="0.63" d="M74.5496 58.0952H63.3236C63.1946 58.0952 63.0932 57.9891 63.0932 57.8646C63.0932 57.7355 63.1992 57.634 63.3236 57.634H74.5496C74.6787 57.634 74.7801 57.7401 74.7801 57.8646C74.7847 57.9937 74.6787 58.0952 74.5496 58.0952Z" fill="white"/>
<path opacity="0.63" d="M61.107 58.0952H42.5399C42.4108 58.0952 42.3094 57.9891 42.3094 57.8646C42.3094 57.7355 42.4154 57.634 42.5399 57.634H61.107C61.236 57.634 61.3374 57.7401 61.3374 57.8646C61.342 57.9937 61.236 58.0952 61.107 58.0952Z" fill="white"/>
<path opacity="0.63" d="M70.8169 60.5712H55.3697C55.2406 60.5712 55.1393 60.4652 55.1393 60.3407C55.1393 60.2116 55.2452 60.1101 55.3697 60.1101H70.8169C70.946 60.1101 71.0473 60.2162 71.0473 60.3407C71.0473 60.4698 70.9414 60.5712 70.8169 60.5712Z" fill="white"/>
<path opacity="0.63" d="M53.5908 60.5712H42.3924C42.2634 60.5712 42.162 60.4652 42.162 60.3407C42.162 60.2116 42.268 60.1101 42.3924 60.1101H53.5862C53.7152 60.1101 53.8166 60.2162 53.8166 60.3407C53.8212 60.4698 53.7152 60.5712 53.5908 60.5712Z" fill="white"/>
<path d="M78.9322 103.564H38.8025C38.4568 103.564 38.1711 103.282 38.1711 102.932V90.352C38.1711 89.9784 38.4753 89.6741 38.8486 89.6741H79.4852V103.006C79.4852 103.319 79.241 103.564 78.9322 103.564Z" fill="url(#paint7_linear)"/>
<path d="M74.992 89.6787H83.7663C83.9599 89.6787 84.029 90.02 83.8585 90.1445L76.0058 96.0287L74.992 89.6787Z" fill="url(#paint8_linear)"/>
<path opacity="0.63" d="M74.4944 93.9626H63.2085C63.0794 93.9626 62.9781 93.8565 62.9781 93.732C62.9781 93.6029 63.0841 93.5015 63.2085 93.5015H74.4944C74.6234 93.5015 74.7248 93.6075 74.7248 93.732C74.7294 93.8565 74.6234 93.9626 74.4944 93.9626Z" fill="white"/>
<path opacity="0.63" d="M61.577 93.9626H42.526C42.397 93.9626 42.2956 93.8565 42.2956 93.732C42.2956 93.6029 42.4016 93.5015 42.526 93.5015H61.577C61.7061 93.5015 61.8074 93.6075 61.8074 93.732C61.8074 93.8565 61.7061 93.9626 61.577 93.9626Z" fill="white"/>
<path opacity="0.63" d="M74.7108 96.4389H51.7104C51.5814 96.4389 51.48 96.3329 51.48 96.2084C51.48 96.0838 51.586 95.9778 51.7104 95.9778H74.7108C74.8399 95.9778 74.9412 96.0838 74.9412 96.2084C74.9412 96.3329 74.8352 96.4389 74.7108 96.4389Z" fill="white"/>
<path opacity="0.63" d="M50.0699 96.4389H42.6965C42.5675 96.4389 42.4661 96.3329 42.4661 96.2084C42.4661 96.0838 42.5721 95.9778 42.6965 95.9778H50.0699C50.1989 95.9778 50.3003 96.0838 50.3003 96.2084C50.3003 96.3329 50.1989 96.4389 50.0699 96.4389Z" fill="white"/>
<path opacity="0.63" d="M70.9734 98.9104H55.5262C55.3971 98.9104 55.2957 98.8043 55.2957 98.6798C55.2957 98.5553 55.4017 98.4492 55.5262 98.4492H70.9734C71.1025 98.4492 71.2038 98.5553 71.2038 98.6798C71.2038 98.8043 71.1025 98.9104 70.9734 98.9104Z" fill="white"/>
<path opacity="0.63" d="M53.7474 98.9104H42.5491C42.42 98.9104 42.3187 98.8043 42.3187 98.6798C42.3187 98.5553 42.4247 98.4492 42.5491 98.4492H53.7428C53.8718 98.4492 53.9732 98.5553 53.9732 98.6798C53.9732 98.8043 53.8718 98.9104 53.7474 98.9104Z" fill="white"/>
<path d="M53.8993 84.3711H94.029C94.3746 84.3711 94.6604 84.0898 94.6604 83.7393V71.1593C94.6604 70.7858 94.3562 70.4814 93.9829 70.4814H53.3463V83.8131C53.3463 84.1221 53.5952 84.3711 53.8993 84.3711Z" fill="#434DA0"/>
<path d="M57.8396 70.4858H49.0653C48.8717 70.4858 48.8026 70.8271 48.9731 70.9516L56.8258 76.8358L57.8396 70.4858Z" fill="#434DA0"/>
<path d="M66.4203 74.7653H58.3371C58.2081 74.7653 58.1067 74.6593 58.1067 74.5348C58.1067 74.4103 58.2127 74.3042 58.3371 74.3042H66.4203C66.5493 74.3042 66.6507 74.4103 66.6507 74.5348C66.6507 74.6593 66.5493 74.7653 66.4203 74.7653Z" fill="#91B3FA"/>
<path d="M90.3102 74.7653H68.3652C68.2361 74.7653 68.1347 74.6593 68.1347 74.5348C68.1347 74.4057 68.2407 74.3042 68.3652 74.3042H90.3102C90.4393 74.3042 90.5406 74.4103 90.5406 74.5348C90.5406 74.6639 90.4346 74.7653 90.3102 74.7653Z" fill="#91B3FA"/>
<path d="M74.7108 77.2418H58.1253C57.9962 77.2418 57.8948 77.1358 57.8948 77.0113C57.8948 76.8822 58.0008 76.7808 58.1253 76.7808H74.7108C74.8398 76.7808 74.9412 76.8868 74.9412 77.0113C74.9412 77.1404 74.8398 77.2418 74.7108 77.2418Z" fill="#91B3FA"/>
<path d="M90.135 77.2418H76.3006C76.1716 77.2418 76.0702 77.1358 76.0702 77.0113C76.0702 76.8822 76.1762 76.7808 76.3006 76.7808H90.135C90.264 76.7808 90.3654 76.8868 90.3654 77.0113C90.3654 77.1404 90.264 77.2418 90.135 77.2418Z" fill="#91B3FA"/>
<path d="M73.8397 79.718H58.3879C58.2588 79.718 58.1574 79.6119 58.1574 79.4874C58.1574 79.3629 58.2634 79.2568 58.3879 79.2568H73.8351C73.9642 79.2568 74.0655 79.3629 74.0655 79.4874C74.0655 79.6119 73.9642 79.718 73.8397 79.718Z" fill="#91B3FA"/>
<path d="M89.5085 26.2578C92.9444 26.2578 95.7298 23.4706 95.7298 20.0323C95.7298 16.5941 92.9444 13.8069 89.5085 13.8069C86.0725 13.8069 83.2872 16.5941 83.2872 20.0323C83.2872 23.4706 86.0725 26.2578 89.5085 26.2578Z" fill="url(#paint9_linear)"/>
<path d="M89.5086 26.05C92.83 26.05 95.5225 23.3557 95.5225 20.0321C95.5225 16.7085 92.83 14.0142 89.5086 14.0142C86.1872 14.0142 83.4946 16.7085 83.4946 20.0321C83.4946 23.3557 86.1872 26.05 89.5086 26.05Z" fill="url(#paint10_linear)"/>
<path opacity="0.7" d="M83.9646 19.7923C83.9323 19.7923 83.9046 19.7646 83.9093 19.7323C83.9231 19.4972 83.9507 19.2574 83.9922 19.0268C83.9968 18.9945 84.0291 18.9761 84.0567 18.9807C84.089 18.9853 84.1074 19.0176 84.1028 19.0452C84.0613 19.2712 84.0337 19.5064 84.0245 19.737C84.0199 19.7692 83.9968 19.7923 83.9646 19.7923Z" fill="white"/>
<path opacity="0.7" d="M84.55 17.588C84.5407 17.588 84.5315 17.588 84.5223 17.5834C84.4947 17.5695 84.4808 17.5327 84.4993 17.505C85.4578 15.6005 87.3795 14.4199 89.5086 14.4199C89.8496 14.4199 90.1906 14.4522 90.5224 14.5122C90.5547 14.5168 90.5731 14.549 90.5685 14.5767C90.5639 14.609 90.5316 14.6274 90.504 14.6228C90.1768 14.5629 89.845 14.5352 89.5132 14.5352C87.4256 14.5352 85.5454 15.6927 84.6053 17.5603C84.5914 17.5788 84.573 17.588 84.55 17.588Z" fill="white"/>
<path opacity="0.78" d="M93.2408 23.7643C95.2294 21.7743 95.2294 18.548 93.2408 16.558C91.2522 14.568 88.028 14.568 86.0393 16.558C84.0507 18.548 84.0507 21.7743 86.0393 23.7643C88.028 25.7542 91.2522 25.7542 93.2408 23.7643Z" fill="white"/>
<path d="M91.1997 18.2384C91.1997 19.1007 90.4992 20.0322 89.6374 20.0322C88.7757 20.0322 88.0752 19.1007 88.0752 18.2384C88.0752 17.376 88.7757 16.7627 89.6374 16.7627C90.4992 16.7627 91.1997 17.376 91.1997 18.2384Z" fill="url(#paint11_linear)"/>
<path d="M87.7019 23.3525H91.5131C91.914 23.3525 92.2688 23.0942 92.3933 22.7115L92.596 22.0705C92.7481 21.6001 92.5039 21.0929 92.0384 20.9222C90.49 20.355 88.8863 20.4288 87.2411 20.973C86.7803 21.1251 86.5268 21.6186 86.6512 22.0889L86.8079 22.67C86.9185 23.0758 87.2872 23.3525 87.7019 23.3525Z" fill="url(#paint12_linear)"/>
<path d="M42.3648 45.3489C45.8007 45.3489 48.5861 42.5616 48.5861 39.1234C48.5861 35.6852 45.8007 32.8979 42.3648 32.8979C38.9289 32.8979 36.1435 35.6852 36.1435 39.1234C36.1435 42.5616 38.9289 45.3489 42.3648 45.3489Z" fill="url(#paint13_linear)"/>
<path d="M42.3648 45.1411C45.6862 45.1411 48.3787 42.4468 48.3787 39.1232C48.3787 35.7995 45.6862 33.1052 42.3648 33.1052C39.0434 33.1052 36.3508 35.7995 36.3508 39.1232C36.3508 42.4468 39.0434 45.1411 42.3648 45.1411Z" fill="#434DA0"/>
<path d="M36.8163 38.8834C36.7841 38.8834 36.7564 38.8557 36.761 38.8234C36.7749 38.5882 36.8025 38.3484 36.844 38.1179C36.8486 38.0856 36.8809 38.0671 36.9085 38.0717C36.9408 38.0764 36.9592 38.1086 36.9546 38.1363C36.9131 38.3623 36.8855 38.5975 36.8762 38.828C36.8716 38.8603 36.8486 38.8834 36.8163 38.8834Z" fill="#91B3FA"/>
<path d="M37.4016 36.6795C37.3924 36.6795 37.3832 36.6795 37.3739 36.6749C37.3463 36.6611 37.3325 36.6242 37.3509 36.5965C38.3094 34.692 40.2311 33.5115 42.3602 33.5115C42.7012 33.5115 43.0422 33.5438 43.374 33.6037C43.4063 33.6083 43.4247 33.6406 43.4201 33.6683C43.4155 33.7005 43.3833 33.719 43.3556 33.7144C43.033 33.6544 42.6966 33.6268 42.3648 33.6268C40.2772 33.6268 38.397 34.7842 37.4569 36.6519C37.4431 36.6703 37.4246 36.6795 37.4016 36.6795Z" fill="#91B3FA"/>
<path d="M42.4938 44.348C45.3062 44.348 47.5861 42.0666 47.5861 39.2524C47.5861 36.4381 45.3062 34.1567 42.4938 34.1567C39.6814 34.1567 37.4016 36.4381 37.4016 39.2524C37.4016 42.0666 39.6814 44.348 42.4938 44.348Z" fill="#BDD0FB"/>
<path d="M44.0515 37.3294C44.0515 38.1918 43.351 39.1233 42.4892 39.1233C41.6275 39.1233 40.927 38.1918 40.927 37.3294C40.927 36.4671 41.6275 35.8538 42.4892 35.8538C43.3556 35.8538 44.0515 36.4671 44.0515 37.3294Z" fill="#434DA0"/>
<path d="M40.5537 42.4435H44.3648C44.7657 42.4435 45.1206 42.1853 45.245 41.8025L45.4478 41.1616C45.5998 40.6912 45.3556 40.1839 44.8902 40.0133C43.3417 39.4461 41.738 39.5199 40.0928 40.064C39.632 40.2162 39.3785 40.7096 39.503 41.18L39.6597 41.761C39.7749 42.1668 40.1389 42.4435 40.5537 42.4435Z" fill="#434DA0"/>
<path d="M90.1398 64.4404C93.5757 64.4404 96.3611 61.6532 96.3611 58.215C96.3611 54.7767 93.5757 51.9895 90.1398 51.9895C86.7039 51.9895 83.9185 54.7767 83.9185 58.215C83.9185 61.6532 86.7039 64.4404 90.1398 64.4404Z" fill="url(#paint14_linear)"/>
<path d="M90.1396 64.2327C93.461 64.2327 96.1535 61.5384 96.1535 58.2147C96.1535 54.8911 93.461 52.1968 90.1396 52.1968C86.8182 52.1968 84.1257 54.8911 84.1257 58.2147C84.1257 61.5384 86.8182 64.2327 90.1396 64.2327Z" fill="url(#paint15_linear)"/>
<path opacity="0.7" d="M84.5959 57.9798C84.5636 57.9798 84.536 57.9521 84.5406 57.9198C84.5544 57.6847 84.5821 57.4449 84.6236 57.2143C84.6282 57.182 84.6604 57.1636 84.6881 57.1682C84.7203 57.1728 84.7388 57.2051 84.7342 57.2327C84.6927 57.4587 84.665 57.6939 84.6558 57.9244C84.6512 57.9521 84.6236 57.9798 84.5959 57.9798Z" fill="white"/>
<path opacity="0.7" d="M85.1811 55.7711C85.1718 55.7711 85.1626 55.7711 85.1534 55.7665C85.1258 55.7527 85.1119 55.7158 85.1304 55.6881C86.0889 53.7836 88.0106 52.603 90.1396 52.603C90.4806 52.603 90.8217 52.6353 91.1534 52.6953C91.1857 52.6999 91.2041 52.7321 91.1995 52.7598C91.1949 52.7921 91.1627 52.8105 91.135 52.8059C90.8078 52.746 90.476 52.7183 90.1442 52.7183C88.0567 52.7183 86.1765 53.8758 85.2364 55.7434C85.2225 55.7619 85.1995 55.7711 85.1811 55.7711Z" fill="white"/>
<path opacity="0.78" d="M93.8738 61.9501C95.8624 59.9601 95.8624 56.7337 93.8738 54.7438C91.8851 52.7538 88.6609 52.7538 86.6723 54.7438C84.6837 56.7337 84.6837 59.9601 86.6723 61.9501C88.6609 63.94 91.8851 63.94 93.8738 61.9501Z" fill="white"/>
<path d="M91.831 56.421C91.831 57.2833 91.1306 58.2148 90.2688 58.2148C89.407 58.2148 88.7066 57.2833 88.7066 56.421C88.7066 55.5586 89.407 54.9453 90.2688 54.9453C91.1306 54.9453 91.831 55.5586 91.831 56.421Z" fill="url(#paint16_linear)"/>
<path d="M88.3332 61.5351H92.1443C92.5453 61.5351 92.9001 61.2768 93.0245 60.8941L93.2273 60.2531C93.3794 59.7827 93.1351 59.2755 92.6697 59.1049C91.1213 58.5376 89.5176 58.6114 87.8724 59.1556C87.4115 59.3078 87.1581 59.8012 87.2825 60.2716L87.4392 60.8526C87.5498 61.2584 87.9139 61.5351 88.3332 61.5351Z" fill="url(#paint17_linear)"/>
<path d="M43.4662 84.0066C46.9022 84.0066 49.6875 81.2194 49.6875 77.7811C49.6875 74.3429 46.9022 71.5557 43.4662 71.5557C40.0303 71.5557 37.2449 74.3429 37.2449 77.7811C37.2449 81.2194 40.0303 84.0066 43.4662 84.0066Z" fill="url(#paint18_linear)"/>
<path d="M43.4663 83.7991C46.7877 83.7991 49.4802 81.1047 49.4802 77.7811C49.4802 74.4575 46.7877 71.7632 43.4663 71.7632C40.1449 71.7632 37.4523 74.4575 37.4523 77.7811C37.4523 81.1047 40.1449 83.7991 43.4663 83.7991Z" fill="#434DA0"/>
<path d="M37.9224 77.5413C37.8901 77.5413 37.8625 77.5136 37.8671 77.4814C37.8809 77.2462 37.9086 77.0064 37.95 76.7758C37.9547 76.7435 37.9869 76.7251 38.0146 76.7297C38.0468 76.7343 38.0653 76.7666 38.0606 76.7943C38.0192 77.0202 37.9915 77.2554 37.9823 77.486C37.9777 77.5183 37.95 77.5413 37.9224 77.5413Z" fill="#91B3FA"/>
<path d="M38.5076 75.337C38.4984 75.337 38.4892 75.337 38.4799 75.3324C38.4523 75.3186 38.4385 75.2817 38.4569 75.254C39.4154 73.3495 41.3371 72.1689 43.4662 72.1689C43.8072 72.1689 44.1482 72.2012 44.48 72.2612C44.5123 72.2658 44.5307 72.2981 44.5261 72.3257C44.5215 72.358 44.4893 72.3765 44.4616 72.3719C44.1344 72.3119 43.8026 72.2842 43.4708 72.2842C41.3832 72.2842 39.503 73.4417 38.5629 75.3093C38.5491 75.3278 38.526 75.337 38.5076 75.337Z" fill="#91B3FA"/>
<path opacity="0.78" d="M47.1977 81.5123C49.1864 79.5224 49.1864 76.296 47.1977 74.306C45.2091 72.3161 41.9849 72.3161 39.9963 74.306C38.0077 76.296 38.0077 79.5224 39.9963 81.5123C41.9849 83.5023 45.2091 83.5023 47.1977 81.5123Z" fill="#BDD0FB"/>
<path d="M45.1575 75.9874C45.1575 76.8497 44.457 77.7812 43.5953 77.7812C42.7335 77.7812 42.033 76.8497 42.033 75.9874C42.033 75.125 42.7335 74.5117 43.5953 74.5117C44.457 74.5117 45.1575 75.125 45.1575 75.9874Z" fill="#434DA0"/>
<path d="M41.6597 81.1012H45.4708C45.8717 81.1012 46.2266 80.843 46.351 80.4603L46.5538 79.8193C46.7059 79.3489 46.4616 78.8416 45.9962 78.671C44.4478 78.1038 42.8441 78.1776 41.1989 78.7217C40.7381 78.8739 40.4846 79.3674 40.609 79.8377L40.7657 80.4188C40.8763 80.8246 41.2404 81.1012 41.6597 81.1012Z" fill="#434DA0"/>
<path d="M90.6145 102.785C94.0504 102.785 96.8358 99.9974 96.8358 96.5592C96.8358 93.121 94.0504 90.3337 90.6145 90.3337C87.1786 90.3337 84.3932 93.121 84.3932 96.5592C84.3932 99.9974 87.1786 102.785 90.6145 102.785Z" fill="url(#paint19_linear)"/>
<path d="M90.6144 102.577C93.9358 102.577 96.6283 99.883 96.6283 96.5594C96.6283 93.2358 93.9358 90.5415 90.6144 90.5415C87.293 90.5415 84.6005 93.2358 84.6005 96.5594C84.6005 99.883 87.293 102.577 90.6144 102.577Z" fill="url(#paint20_linear)"/>
<path opacity="0.7" d="M85.0707 96.3194C85.0661 96.3194 85.0661 96.3194 85.0707 96.3194C85.0384 96.3194 85.0108 96.2917 85.0154 96.2594C85.0292 96.0243 85.0568 95.7845 85.0983 95.5539C85.1029 95.5216 85.1352 95.5032 85.1628 95.5078C85.1951 95.5124 85.2135 95.5447 85.2089 95.5723C85.1674 95.7983 85.1398 96.0335 85.1306 96.2641C85.126 96.2963 85.0983 96.3194 85.0707 96.3194Z" fill="white"/>
<path opacity="0.7" d="M85.6557 94.1153C85.6465 94.1153 85.6373 94.1153 85.6281 94.1107C85.6004 94.0969 85.5866 94.06 85.605 94.0323C86.5636 92.1278 88.4853 90.9473 90.6144 90.9473C90.9554 90.9473 91.2964 90.9795 91.6282 91.0395C91.6605 91.0441 91.6789 91.0764 91.6743 91.1041C91.6697 91.1363 91.6374 91.1548 91.6098 91.1502C91.2826 91.0902 90.9508 91.0626 90.619 91.0626C88.5314 91.0626 86.6511 92.22 85.711 94.0877C85.6926 94.1015 85.6741 94.1153 85.6557 94.1153Z" fill="white"/>
<path opacity="0.78" d="M90.7436 101.784C93.5559 101.784 95.8358 99.5027 95.8358 96.6884C95.8358 93.8742 93.5559 91.5928 90.7436 91.5928C87.9312 91.5928 85.6513 93.8742 85.6513 96.6884C85.6513 99.5027 87.9312 101.784 90.7436 101.784Z" fill="white"/>
<path d="M92.3011 94.7652C92.3011 95.6275 91.6007 96.5591 90.7389 96.5591C89.8771 96.5591 89.1767 95.6275 89.1767 94.7652C89.1767 93.9029 89.8771 93.2896 90.7389 93.2896C91.6053 93.2896 92.3011 93.9029 92.3011 94.7652Z" fill="url(#paint21_linear)"/>
<path d="M88.8034 99.8793H92.6145C93.0154 99.8793 93.3703 99.6211 93.4947 99.2383L93.6975 98.5974C93.8496 98.127 93.6053 97.6197 93.1399 97.4491C91.5914 96.8819 89.9877 96.9557 88.3425 97.4998C87.8817 97.652 87.6282 98.1454 87.7527 98.6158L87.9094 99.1968C88.0246 99.598 88.3886 99.8793 88.8034 99.8793Z" fill="url(#paint22_linear)"/>
<path d="M128.55 76.7666C128.55 76.7666 128.55 84.6199 125.108 83.9789C123.007 83.5869 121.762 75.1249 121.762 75.1249C121.762 75.1249 123.937 70.2783 124.182 71.8646C125.947 83.4025 127.26 74.5715 128.55 76.7666Z" fill="url(#paint23_linear)"/>
<path d="M119.311 123.384C119.311 123.384 119.053 124.855 118.924 126.312C118.873 126.879 119.311 127.377 119.882 127.4C121.822 127.483 125.97 127.64 127.458 127.571C127.684 127.562 127.827 127.331 127.744 127.124C127.675 126.948 127.541 126.81 127.371 126.732L120.518 123.582L119.311 123.384Z" fill="url(#paint24_linear)"/>
<path d="M119.094 122.517L119.301 124.278C119.301 124.278 120.5 124.836 121.32 124.209L120.822 122.249L119.094 122.517Z" fill="url(#paint25_linear)"/>
<path d="M119.251 89.4157C119.159 89.8769 118.767 112.358 121.168 122.434C121.205 122.6 121.122 122.766 120.965 122.83C120.596 122.982 119.873 123.199 119.011 123.227C118.744 123.236 118.504 123.061 118.426 122.803C117.739 120.465 114.449 108.752 114.02 97.5642C113.541 85.0625 114.02 97.1399 114.02 97.1399L114.301 89.4111L119.251 89.4157Z" fill="url(#paint26_linear)"/>
<path d="M111.426 124.149C111.426 124.149 111.011 124.892 110.61 126.866C110.536 127.221 110.785 127.562 111.149 127.599C111.79 127.663 112.776 127.742 113.564 127.737C113.928 127.732 114.214 127.419 114.168 127.055C114.08 126.335 113.808 125.15 112.965 124.228L111.426 124.149Z" fill="url(#paint27_linear)"/>
<path d="M111.066 121.885L111.555 124.546C111.555 124.546 112.039 124.905 112.993 124.643L112.758 121.779L111.066 121.885Z" fill="url(#paint28_linear)"/>
<path d="M109.748 90.1076C107.785 101.968 110.172 119.427 110.979 122.844C111.029 123.052 111.195 123.213 111.407 123.25C111.767 123.31 112.361 123.361 112.942 123.19C113.145 123.13 113.283 122.95 113.292 122.738C113.398 119.976 113.205 103.02 115.034 96.3147C115.126 95.9734 115.334 95.6783 115.619 95.4754L119.172 92.9483L119.444 88.8625L109.748 90.1076Z" fill="url(#paint29_linear)"/>
<path d="M122.481 68.0787C115.311 67.3593 109.882 69.1762 109.882 69.1762C108.126 79.4228 109.573 91.2374 109.573 91.2374C114.131 92.4317 119.269 90.5041 119.269 90.5041C120.025 86.2201 123.182 76.3332 123.182 76.3332C124.619 76.1533 125.97 76.8819 125.661 74.8852C125.352 72.893 123.384 68.1709 122.481 68.0787Z" fill="url(#paint30_linear)"/>
<path d="M112.14 74.8806L109.882 69.1763C109.882 69.1763 104.638 72.7409 103.55 77.3201C103.509 77.4953 103.624 77.666 103.804 77.6844C104.946 77.8274 107.006 78.3346 108.684 79.1831C109.089 76.9512 112.14 74.8806 112.14 74.8806Z" fill="url(#paint31_linear)"/>
<path d="M117.421 80.2484C117.421 80.2484 111.246 83.7392 109.163 80.7602C108.73 80.1423 108.628 79.5244 108.734 78.9387C106.882 78.0026 104.992 77.7351 103.956 77.6567C103.684 79.0863 103.826 80.6035 104.665 82.1437C108.315 88.8211 118.237 81.7748 118.237 81.7748L117.421 80.2484Z" fill="url(#paint32_linear)"/>
<path d="M118.555 82.6187L120.578 75.5401C120.601 75.4618 120.67 75.4018 120.753 75.3926C121.122 75.3511 122.182 75.2312 123.412 75.1251C124.891 75.0006 126.61 74.8992 127.633 74.9868C127.781 75.0006 127.868 75.1528 127.804 75.2865C127.219 76.467 124.818 81.2722 123.619 82.8493C123.578 82.9 123.518 82.9323 123.453 82.9323L118.753 82.8908C118.615 82.8816 118.518 82.7478 118.555 82.6187Z" fill="url(#paint33_linear)"/>
<path d="M117.495 81.8208C117.495 81.8208 117.025 79.8886 117.214 79.2061C117.403 78.519 117.771 77.6382 118.993 77.8365C120.214 78.0302 121.656 78.5467 121.656 78.5467C121.656 78.5467 121.583 79.4413 120.656 79.1508L121.232 79.5981C121.232 79.5981 121.149 80.3129 120.366 79.9301L120.901 80.5204C120.901 80.5204 120.564 81.106 119.988 80.7325C119.407 80.3544 119.131 82.0514 117.495 81.8208Z" fill="url(#paint34_linear)"/>
<path d="M126.924 78.8326C126.924 78.8326 128.348 77.4446 128.55 76.7667C128.753 76.0842 128.91 75.1434 127.772 74.6592C126.633 74.175 125.136 73.843 125.136 73.843C125.136 73.843 124.725 74.6362 125.665 74.8898L124.942 74.9636C124.942 74.9636 124.633 75.6138 125.5 75.706L124.73 75.9228C124.73 75.9228 124.702 76.6007 125.394 76.5868C126.085 76.573 125.412 78.1593 126.924 78.8326Z" fill="url(#paint35_linear)"/>
<path d="M116.56 63.5776L114.689 68.9961C114.656 69.0837 114.693 69.1852 114.776 69.2313C115.288 69.5126 117.126 70.3288 119.343 68.9223C119.573 68.7747 119.73 68.535 119.767 68.2675L120.375 63.5776H116.56Z" fill="url(#paint36_linear)"/>
<path d="M122.154 62.2405C122.154 62.2405 121.55 66.5845 120.417 67.7005C119.288 68.8118 117.288 67.2255 116.228 64.8921L117.421 60.5896L122.154 62.2405Z" fill="url(#paint37_linear)"/>
<path d="M117.513 63.2781C117.61 63.2965 117.702 63.2274 117.707 63.1305C117.721 62.8308 117.772 62.2313 117.956 61.8117C117.956 61.8117 117.795 61.4012 119.039 61.9177C120.283 62.4342 122.154 63.1859 123.14 62.5218C124.103 61.8762 124.855 59.0402 122.219 59.8195C122.117 59.8472 122.016 59.778 122.011 59.672C121.997 59.22 121.85 58.1917 120.772 57.9703C119.762 57.7582 119.274 58.2562 119.08 58.5468C119.025 58.6298 118.905 58.6436 118.831 58.5698C118.5 58.2194 117.619 57.4861 116.504 58.1225C115.583 58.6482 115.495 59.2569 115.55 59.6258C115.569 59.7457 115.454 59.838 115.338 59.8011C115.03 59.695 114.546 59.672 114.149 60.2899C113.601 61.143 114.569 61.7333 114.859 61.8854C114.905 61.9085 114.937 61.9546 114.947 62.01C114.993 62.4204 115.237 64.2004 116.237 65.1181C116.325 65.1965 116.463 65.155 116.5 65.0443L117.02 63.3288C117.043 63.2504 117.126 63.1997 117.209 63.2182L117.513 63.2781Z" fill="url(#paint38_linear)"/>
<path d="M117.564 63.6103C117.564 63.6103 116.97 61.9364 116.384 62.5589C115.799 63.1815 116.735 64.3251 117.49 64.4865L117.564 63.6103Z" fill="url(#paint39_linear)"/>
<path d="M24.535 82.2634C23.7377 80.9353 23.5303 79.7409 23.7654 78.1961C24.1525 75.6505 23.8529 72.8145 22.2308 70.7163C20.6916 68.7288 17.9219 68.5489 16.2307 66.7781C16.2168 66.7643 16.18 66.709 16.1247 66.6167C15.6961 65.9435 15.4657 65.178 15.438 64.3802C15.2721 59.386 11.6453 59.4459 9.92181 60.3959C7.19366 61.8946 7.79274 64.6938 7.79274 64.6938C8.55313 65.5054 11.2675 63.7715 11.2675 63.7715L12.3965 65.5838C12.0785 65.7221 11.7329 65.8789 11.3596 66.0634C8.80198 67.3177 8.52547 77.1262 9.9679 78.6941C11.4103 80.262 11.6638 81.7607 10.2075 84.3247C8.75589 86.8933 9.59462 90.2412 17.3275 93.0219C18.5809 93.4738 20.4658 93.5199 21.7008 93.0173C24.4151 91.9151 25.9083 88.6871 25.982 85.9064C26.0235 84.4999 25.2262 83.4162 24.535 82.2634Z" fill="url(#paint40_linear)"/>
<path d="M22.5304 79.0628C22.5073 79.0628 22.4889 79.0398 22.4935 79.0213C22.8115 75.4982 21.7331 73.1786 20.7746 71.8505C19.7285 70.4025 18.3644 69.5171 17.5349 69.305C16.074 68.9315 15.392 67.216 15.3874 67.1976C15.3782 67.1791 15.3874 67.1561 15.4104 67.1468C15.4289 67.1376 15.4519 67.1468 15.4611 67.1699C15.4657 67.1883 16.134 68.8623 17.5579 69.2312C18.2031 69.3972 19.6271 70.1258 20.8391 71.8044C21.8069 73.1417 22.8898 75.4751 22.5718 79.0259C22.5672 79.049 22.5534 79.0628 22.5304 79.0628Z" fill="#91B3FA"/>
<path d="M21.2677 91.5186C21.2539 91.5186 21.2354 91.5094 21.2308 91.4955C21.2216 91.4771 21.2308 91.454 21.2539 91.4448C21.2861 91.431 24.3092 90.2182 24.2539 86.8656C24.2539 86.8425 24.2723 86.8287 24.2908 86.8241C24.3092 86.8195 24.3276 86.8425 24.3322 86.861C24.3875 90.2689 21.3138 91.5048 21.2815 91.514C21.2769 91.5186 21.2723 91.5186 21.2677 91.5186Z" fill="#91B3FA"/>
<path d="M2.5116 79.0076C2.5116 79.0076 5.86188 83.0195 9.23061 79.7638L10.5348 82.789C10.5348 82.789 5.61303 86.6026 1.87564 80.6031L2.5116 79.0076Z" fill="url(#paint41_linear)"/>
<path d="M10.779 71.5603C11.7099 71.2836 14.415 70.7671 16.9911 73.142C17.4289 73.5432 17.604 74.1565 17.452 74.7329C16.7607 77.2785 14.9358 84.8044 16.5349 88.06C16.5349 88.06 13.7146 91.1682 10.6408 88.6641C10.6408 88.6641 9.26288 82.6462 7.45179 80.0038C6.20292 78.1823 9.44261 73.1558 10.2583 71.943C10.3827 71.7586 10.5671 71.6202 10.779 71.5603Z" fill="url(#paint42_linear)"/>
<path d="M12.2215 66.7043C12.2215 66.7043 14.0971 70.3797 14.4243 72.0674C14.4243 72.0674 13.0095 72.9528 11.438 71.9844C11.438 71.9844 10.7744 68.1523 10.4703 67.4929L12.2215 66.7043Z" fill="url(#paint43_linear)"/>
<path d="M7.05088 101.3C7.06009 101.572 6.58082 103.739 6.32276 104.896C6.21676 105.362 6.2905 105.846 6.52552 106.261L15.5579 121.475C15.6685 121.659 15.7469 121.857 15.793 122.065C15.9589 122.78 16.2999 124.527 16.1248 126.118L15.6593 127.091L17.6824 126.63L18.1202 121.198L17.5487 120.848C17.0556 120.548 16.6685 120.096 16.4473 119.561C15.6317 117.573 13.604 112.519 13.0786 110.057C12.4841 107.258 9.3781 104.984 9.3781 104.984L9.92189 103.693L7.05088 101.3Z" fill="url(#paint44_linear)"/>
<path d="M19.9266 124.767C19.9266 124.767 18.8345 123.033 18.7054 122.36C18.5764 121.687 18.2215 120.497 17.5487 120.852C17.5487 120.852 17.2307 124.126 17.3413 125.403C17.4519 126.681 15.8943 126.644 15.8943 126.644C15.8943 126.644 15.4657 126.704 15.1524 127.017C14.9358 127.234 15.0925 127.612 15.3966 127.631C15.9035 127.663 16.7146 127.672 17.5625 127.506C17.8575 127.451 18.0787 127.197 18.0971 126.893L18.3229 123.125L19.7008 124.864L19.9266 124.767Z" fill="url(#paint45_linear)"/>
<path d="M12.4472 103.721C12.4472 103.721 12.7652 117.329 12.8113 119.261C12.8527 121.193 12.5071 125.477 10.5716 126.759L11.4149 127.382C11.4149 127.382 12.4656 126.487 13.4979 124.763C14.6546 122.826 15.0048 122.471 15.0048 122.471L14.6224 121.687C14.4565 121.341 14.4058 120.954 14.4841 120.58C14.9035 118.556 16.2998 111.814 16.6777 110.361C17.1293 108.646 17.157 106.358 15.5947 104.445C14.0187 102.531 12.4472 103.721 12.4472 103.721Z" fill="url(#paint46_linear)"/>
<path d="M14.2352 128C14.2951 128 14.3458 127.958 14.355 127.898C14.4196 127.446 14.6868 125.625 14.908 125.154C15.1615 124.615 15.9818 122.346 14.908 122.152C14.908 122.152 12.2398 126.054 11.7283 126.579C11.2167 127.105 10.5716 126.764 10.5716 126.764C10.5716 126.764 10.0739 126.911 9.69598 127.391C9.51625 127.622 9.68216 127.958 9.97248 127.958L11.7697 127.977C12.2905 127.981 12.7605 127.663 12.9541 127.179C13.2721 126.39 13.8159 125.228 14.4472 124.712L14.12 127.866C14.1062 127.935 14.1615 128 14.2352 128Z" fill="url(#paint47_linear)"/>
<path d="M10.2122 87.1976C10.2122 87.1976 10.6177 88.4888 9.9956 90.6192L6.13378 104.108C6.07387 104.32 6.18908 104.541 6.39646 104.615C7.55316 105.03 11.3458 106.201 16.5257 105.846C16.7883 105.828 17.0049 105.643 17.0602 105.39C17.4013 103.854 18.5672 98.6063 18.8068 97.5272C19.7193 93.4184 20.6041 89.5125 16.1155 86.8333C14.051 87.714 12.2583 87.714 10.2122 87.1976Z" fill="url(#paint48_linear)"/>
<path d="M14.8712 74.982C14.8712 74.982 15.65 86.091 8.47479 80.5111C8.47479 80.5111 7.41487 79.5104 6.64988 79.3859C6.23973 79.3214 5.77429 79.2753 5.43327 79.2522C5.27658 79.2384 5.20285 79.4413 5.33188 79.5289C5.57613 79.7041 5.90332 79.8886 6.17982 79.9163C6.719 79.9716 6.14296 80.3682 6.73283 81.4058C7.3227 82.4433 8.16603 82.0514 8.16603 82.0514C8.16603 82.0514 16.3874 90.4765 18.0279 75.7844C18.0833 73.059 15.4565 73.202 14.8712 74.982Z" fill="url(#paint49_linear)"/>
<path d="M0.308777 76.2453L2.75121 75.9225C3.04154 75.8764 3.34109 76.047 3.52081 76.3606L5.12453 79.9114C5.42868 80.4417 5.21209 81.1473 4.7236 81.2257L2.76504 81.4793C2.5761 81.5116 2.38254 81.3917 2.28116 81.1795L0.110617 76.8448C-0.0184175 76.5958 0.0875751 76.2822 0.308777 76.2453Z" fill="url(#paint50_linear)"/>
<path d="M1.97243 81.0369C1.97243 81.0369 0.331854 78.6482 0.520797 78.3531C0.709741 78.0579 2.14755 77.6383 2.48857 77.5368C2.82498 77.44 3.46094 79.6028 1.97243 81.0369Z" fill="url(#paint51_linear)"/>
<path d="M8.01395 64.6294C8.01395 64.6294 7.66372 70.8088 10.2628 70.8964C12.862 70.984 13.1108 66.5893 13.1108 66.5893C13.1108 66.5893 12.3458 63.8132 11.1062 63.4904C9.87113 63.1676 8.01395 64.6294 8.01395 64.6294Z" fill="url(#paint52_linear)"/>
<path d="M8.779 62.7248C8.779 62.7248 7.59004 63.9377 7.79742 64.6939C8.00019 65.4502 10.5486 64.6617 11.1754 64.302L13.2768 66.5431C13.2768 66.5431 13.2123 63.2229 11.7606 62.2037C10.309 61.18 8.779 62.7248 8.779 62.7248Z" fill="url(#paint53_linear)"/>
<path d="M12.3274 66.649C12.3274 66.649 12.6454 64.5278 13.6776 65.1272C14.7145 65.7221 13.6039 67.3638 12.7928 67.2623L12.3274 66.649Z" fill="url(#paint54_linear)"/>
<defs>
<linearGradient id="paint0_linear" x1="105.893" y1="26.1945" x2="97.1935" y2="94.934" gradientUnits="userSpaceOnUse">
<stop stop-color="#CB236D"/>
<stop offset="1" stop-color="#4C246D"/>
</linearGradient>
<linearGradient id="paint1_linear" x1="3.69189" y1="36.559" x2="10.5519" y2="36.559" gradientUnits="userSpaceOnUse">
<stop stop-color="#DAE3FE"/>
<stop offset="1" stop-color="#E9EFFD"/>
</linearGradient>
<linearGradient id="paint2_linear" x1="25.9948" y1="60.9075" x2="106.984" y2="59.1347" gradientUnits="userSpaceOnUse">
<stop stop-color="#434DA0"/>
<stop offset="1" stop-color="#5763C1"/>
</linearGradient>
<linearGradient id="paint3_linear" x1="58.3231" y1="-7.75412" x2="58.3231" y2="24.0526" gradientUnits="userSpaceOnUse">
<stop stop-color="#FF928E"/>
<stop offset="1" stop-color="#FE7062"/>
</linearGradient>
<linearGradient id="paint4_linear" x1="78.968" y1="-7.75436" x2="78.968" y2="24.0523" gradientUnits="userSpaceOnUse">
<stop stop-color="#FF928E"/>
<stop offset="1" stop-color="#FE7062"/>
</linearGradient>
<linearGradient id="paint5_linear" x1="58.9795" y1="37.2306" x2="58.5141" y2="69.3167" gradientUnits="userSpaceOnUse">
<stop stop-color="#FF928E"/>
<stop offset="1" stop-color="#FE7062"/>
</linearGradient>
<linearGradient id="paint6_linear" x1="79.5201" y1="37.5488" x2="79.0554" y2="69.5877" gradientUnits="userSpaceOnUse">
<stop stop-color="#FF928E"/>
<stop offset="1" stop-color="#FE7062"/>
</linearGradient>
<linearGradient id="paint7_linear" x1="61.1163" y1="74.1665" x2="58.072" y2="104.121" gradientUnits="userSpaceOnUse">
<stop stop-color="#FF928E"/>
<stop offset="1" stop-color="#FE7062"/>
</linearGradient>
<linearGradient id="paint8_linear" x1="80.8497" y1="76.2804" x2="77.8296" y2="105.997" gradientUnits="userSpaceOnUse">
<stop stop-color="#FF928E"/>
<stop offset="1" stop-color="#FE7062"/>
</linearGradient>
<linearGradient id="paint9_linear" x1="80.9957" y1="29.9209" x2="89.3477" y2="20.2331" gradientUnits="userSpaceOnUse">
<stop stop-color="#FF928E"/>
<stop offset="1" stop-color="#FE7062"/>
</linearGradient>
<linearGradient id="paint10_linear" x1="94.0572" y1="13.1573" x2="69.3561" y2="50.4489" gradientUnits="userSpaceOnUse">
<stop stop-color="#FF928E"/>
<stop offset="1" stop-color="#FE7062"/>
</linearGradient>
<linearGradient id="paint11_linear" x1="93.1002" y1="7.34284" x2="91.0353" y2="13.843" gradientUnits="userSpaceOnUse">
<stop stop-color="#FF928E"/>
<stop offset="1" stop-color="#FE7062"/>
</linearGradient>
<linearGradient id="paint12_linear" x1="94.1194" y1="7.66661" x2="92.0545" y2="14.1668" gradientUnits="userSpaceOnUse">
<stop stop-color="#FF928E"/>
<stop offset="1" stop-color="#FE7062"/>
</linearGradient>
<linearGradient id="paint13_linear" x1="60.2234" y1="27.7073" x2="34.4588" y2="44.1541" gradientUnits="userSpaceOnUse">
<stop stop-color="#4042E2"/>
<stop offset="1" stop-color="#4F52FF"/>
</linearGradient>
<linearGradient id="paint14_linear" x1="81.6264" y1="68.105" x2="89.9784" y2="58.4172" gradientUnits="userSpaceOnUse">
<stop stop-color="#FF928E"/>
<stop offset="1" stop-color="#FE7062"/>
</linearGradient>
<linearGradient id="paint15_linear" x1="94.6877" y1="51.3414" x2="69.9864" y2="88.633" gradientUnits="userSpaceOnUse">
<stop stop-color="#FF928E"/>
<stop offset="1" stop-color="#FE7062"/>
</linearGradient>
<linearGradient id="paint16_linear" x1="103.435" y1="43.7741" x2="94.1481" y2="52.7454" gradientUnits="userSpaceOnUse">
<stop stop-color="#FF928E"/>
<stop offset="1" stop-color="#FE7062"/>
</linearGradient>
<linearGradient id="paint17_linear" x1="105.285" y1="45.6891" x2="95.998" y2="54.6605" gradientUnits="userSpaceOnUse">
<stop stop-color="#FF928E"/>
<stop offset="1" stop-color="#FE7062"/>
</linearGradient>
<linearGradient id="paint18_linear" x1="41.8478" y1="85.0008" x2="45.4265" y2="69.0654" gradientUnits="userSpaceOnUse">
<stop stop-color="#4042E2"/>
<stop offset="1" stop-color="#4F52FF"/>
</linearGradient>
<linearGradient id="paint19_linear" x1="82.0995" y1="106.447" x2="90.4515" y2="96.7593" gradientUnits="userSpaceOnUse">
<stop stop-color="#FF928E"/>
<stop offset="1" stop-color="#FE7062"/>
</linearGradient>
<linearGradient id="paint20_linear" x1="95.1608" y1="89.6841" x2="70.4597" y2="126.976" gradientUnits="userSpaceOnUse">
<stop stop-color="#FF928E"/>
<stop offset="1" stop-color="#FE7062"/>
</linearGradient>
<linearGradient id="paint21_linear" x1="94.1987" y1="83.7393" x2="90.1721" y2="96.5849" gradientUnits="userSpaceOnUse">
<stop stop-color="#FF928E"/>
<stop offset="1" stop-color="#FE7062"/>
</linearGradient>
<linearGradient id="paint22_linear" x1="95.2068" y1="84.0553" x2="91.1802" y2="96.9009" gradientUnits="userSpaceOnUse">
<stop stop-color="#FF928E"/>
<stop offset="1" stop-color="#FE7062"/>
</linearGradient>
<linearGradient id="paint23_linear" x1="121.762" y1="77.7804" x2="128.55" y2="77.7804" gradientUnits="userSpaceOnUse">
<stop stop-color="#C4421B"/>
<stop offset="1" stop-color="#5C0E16"/>
</linearGradient>
<linearGradient id="paint24_linear" x1="123.194" y1="110.581" x2="123.374" y2="130.273" gradientUnits="userSpaceOnUse">
<stop stop-color="#09005D"/>
<stop offset="1" stop-color="#1A0F91"/>
</linearGradient>
<linearGradient id="paint25_linear" x1="119.096" y1="123.376" x2="121.324" y2="123.376" gradientUnits="userSpaceOnUse">
<stop stop-color="#C4421B"/>
<stop offset="1" stop-color="#5C0E16"/>
</linearGradient>
<linearGradient id="paint26_linear" x1="116.578" y1="131.861" x2="118.101" y2="91.0216" gradientUnits="userSpaceOnUse">
<stop stop-color="#4042E2"/>
<stop offset="1" stop-color="#4F52FF"/>
</linearGradient>
<linearGradient id="paint27_linear" x1="112.24" y1="110.681" x2="112.419" y2="130.373" gradientUnits="userSpaceOnUse">
<stop stop-color="#09005D"/>
<stop offset="1" stop-color="#1A0F91"/>
</linearGradient>
<linearGradient id="paint28_linear" x1="111.064" y1="123.261" x2="112.988" y2="123.261" gradientUnits="userSpaceOnUse">
<stop stop-color="#C4421B"/>
<stop offset="1" stop-color="#5C0E16"/>
</linearGradient>
<linearGradient id="paint29_linear" x1="112.816" y1="131.721" x2="114.339" y2="90.8816" gradientUnits="userSpaceOnUse">
<stop stop-color="#4042E2"/>
<stop offset="1" stop-color="#4F52FF"/>
</linearGradient>
<linearGradient id="paint30_linear" x1="120.827" y1="73.1571" x2="102.871" y2="92.3386" gradientUnits="userSpaceOnUse">
<stop stop-color="#FF928E"/>
<stop offset="1" stop-color="#FE7062"/>
</linearGradient>
<linearGradient id="paint31_linear" x1="114.988" y1="67.7747" x2="97.2707" y2="86.7015" gradientUnits="userSpaceOnUse">
<stop stop-color="#FF928E"/>
<stop offset="1" stop-color="#FE7062"/>
</linearGradient>
<linearGradient id="paint32_linear" x1="103.831" y1="81.3357" x2="118.239" y2="81.3357" gradientUnits="userSpaceOnUse">
<stop stop-color="#C4421B"/>
<stop offset="1" stop-color="#5C0E16"/>
</linearGradient>
<linearGradient id="paint33_linear" x1="120.256" y1="72.0534" x2="124.052" y2="80.9537" gradientUnits="userSpaceOnUse">
<stop stop-color="#09005D"/>
<stop offset="1" stop-color="#1A0F91"/>
</linearGradient>
<linearGradient id="paint34_linear" x1="117.169" y1="79.8239" x2="121.658" y2="79.8239" gradientUnits="userSpaceOnUse">
<stop stop-color="#C4421B"/>
<stop offset="1" stop-color="#5C0E16"/>
</linearGradient>
<linearGradient id="paint35_linear" x1="128.259" y1="77.3137" x2="124.455" y2="74.9299" gradientUnits="userSpaceOnUse">
<stop stop-color="#C4421B"/>
<stop offset="1" stop-color="#5C0E16"/>
</linearGradient>
<linearGradient id="paint36_linear" x1="114.677" y1="66.6539" x2="120.374" y2="66.6539" gradientUnits="userSpaceOnUse">
<stop stop-color="#C4421B"/>
<stop offset="1" stop-color="#5C0E16"/>
</linearGradient>
<linearGradient id="paint37_linear" x1="120.419" y1="66.4973" x2="117.585" y2="59.7263" gradientUnits="userSpaceOnUse">
<stop stop-color="#C4421B"/>
<stop offset="1" stop-color="#5C0E16"/>
</linearGradient>
<linearGradient id="paint38_linear" x1="117.265" y1="54.5156" x2="120.073" y2="64.4434" gradientUnits="userSpaceOnUse">
<stop stop-color="#09005D"/>
<stop offset="1" stop-color="#1A0F91"/>
</linearGradient>
<linearGradient id="paint39_linear" x1="118.251" y1="66.6864" x2="115.701" y2="60.5947" gradientUnits="userSpaceOnUse">
<stop stop-color="#C4421B"/>
<stop offset="1" stop-color="#5C0E16"/>
</linearGradient>
<linearGradient id="paint40_linear" x1="5.23393" y1="51.895" x2="10.4637" y2="64.9076" gradientUnits="userSpaceOnUse">
<stop stop-color="#09005D"/>
<stop offset="1" stop-color="#1A0F91"/>
</linearGradient>
<linearGradient id="paint41_linear" x1="4.34354" y1="74.807" x2="7.32719" y2="85.8391" gradientUnits="userSpaceOnUse">
<stop stop-color="#FEBBBA"/>
<stop offset="1" stop-color="#FF928E"/>
</linearGradient>
<linearGradient id="paint42_linear" x1="33.9008" y1="60.9736" x2="27.555" y2="66.8513" gradientUnits="userSpaceOnUse">
<stop stop-color="#FF928E"/>
<stop offset="1" stop-color="#FE7062"/>
</linearGradient>
<linearGradient id="paint43_linear" x1="11.0452" y1="74.4619" x2="12.5765" y2="69.3486" gradientUnits="userSpaceOnUse">
<stop stop-color="#FEBBBA"/>
<stop offset="1" stop-color="#FF928E"/>
</linearGradient>
<linearGradient id="paint44_linear" x1="23.4494" y1="134.648" x2="7.11482" y2="105.184" gradientUnits="userSpaceOnUse">
<stop stop-color="#FEBBBA"/>
<stop offset="1" stop-color="#FF928E"/>
</linearGradient>
<linearGradient id="paint45_linear" x1="19.9299" y1="124.249" x2="15.0788" y2="124.203" gradientUnits="userSpaceOnUse">
<stop stop-color="#09005D"/>
<stop offset="1" stop-color="#1A0F91"/>
</linearGradient>
<linearGradient id="paint46_linear" x1="4.84767" y1="112.783" x2="29.5957" y2="120.951" gradientUnits="userSpaceOnUse">
<stop stop-color="#FEBBBA"/>
<stop offset="1" stop-color="#FF928E"/>
</linearGradient>
<linearGradient id="paint47_linear" x1="15.4239" y1="125.083" x2="9.64095" y2="125.028" gradientUnits="userSpaceOnUse">
<stop stop-color="#09005D"/>
<stop offset="1" stop-color="#1A0F91"/>
</linearGradient>
<linearGradient id="paint48_linear" x1="21.2095" y1="90.4125" x2="-16.5521" y2="120.107" gradientUnits="userSpaceOnUse">
<stop stop-color="#4042E2"/>
<stop offset="1" stop-color="#4F52FF"/>
</linearGradient>
<linearGradient id="paint49_linear" x1="10.0715" y1="79.0741" x2="-2.68975" y2="79.0741" gradientUnits="userSpaceOnUse">
<stop stop-color="#FEBBBA"/>
<stop offset="1" stop-color="#FF928E"/>
</linearGradient>
<linearGradient id="paint50_linear" x1="3.68127" y1="76.5961" x2="1.37126" y2="79.2544" gradientUnits="userSpaceOnUse">
<stop stop-color="#09005D"/>
<stop offset="1" stop-color="#1A0F91"/>
</linearGradient>
<linearGradient id="paint51_linear" x1="1.0508" y1="75.9738" x2="2.62323" y2="81.7879" gradientUnits="userSpaceOnUse">
<stop stop-color="#FEBBBA"/>
<stop offset="1" stop-color="#FF928E"/>
</linearGradient>
<linearGradient id="paint52_linear" x1="8.22589" y1="65.6961" x2="17.1295" y2="71.4519" gradientUnits="userSpaceOnUse">
<stop stop-color="#FEBBBA"/>
<stop offset="1" stop-color="#FF928E"/>
</linearGradient>
<linearGradient id="paint53_linear" x1="5.2882" y1="51.7545" x2="10.5311" y2="64.7995" gradientUnits="userSpaceOnUse">
<stop stop-color="#09005D"/>
<stop offset="1" stop-color="#1A0F91"/>
</linearGradient>
<linearGradient id="paint54_linear" x1="9.47701" y1="63.7605" x2="18.3805" y2="69.5162" gradientUnits="userSpaceOnUse">
<stop stop-color="#FEBBBA"/>
<stop offset="1" stop-color="#FF928E"/>
</linearGradient>
</defs>
</svg>
